<?xml version="1.0" encoding="utf-8"?>
<!-- Generator: Adobe Illustrator 15.1.0, SVG Export Plug-In . SVG Version: 6.00 Build 0)  -->
<!DOCTYPE svg PUBLIC "-//W3C//DTD SVG 1.1//EN" "http://www.w3.org/Graphics/SVG/1.1/DTD/svg11.dtd">
<svg version="1.1" id="Layer_1" xmlns="http://www.w3.org/2000/svg" xmlns:xlink="http://www.w3.org/1999/xlink" x="0px" y="0px"
	 width="196px" height="22px" viewBox="0 0 196 22" enable-background="new 0 0 196 22" xml:space="preserve">
<g>
	<g>
		<path fill="#FFFFFF" d="M11.693,1.323c-0.09-0.03-0.061-0.12-0.09-0.21c-0.6-0.21-1.381-0.391-2.07-0.18
			c-0.21-0.03-0.51,0.029-0.779,0.06c-0.301,0.03-0.57,0.09-0.78,0.18l-0.06,1.8c0,0.15,0.029,0.271,0.029,0.42
			c0,0.15-0.061,0.301-0.061,0.45c0,0.87,0.031,1.561,0.031,2.37v2.04c-0.031,1.11-0.091,2.25-0.091,3.3c0.03,0.12-0.06,0-0.06,0.09
			c0.119,0,0.029,0.15,0.029,0.18c0,0.631,0,1.65,0.03,2.4c0.03,0.84,0.091,1.71,0,2.43c0.091,0.18,0.091,0.42,0,0.72
			c-0.03,0.15,0,0.33-0.09,0.45c-0.12,0.33-0.69,0.63-1.05,0.72c-0.09,0.03-0.18,0-0.27,0.03c-0.091,0.03-0.181,0.09-0.271,0.09
			c-0.33,0.03-0.601-0.06-0.81-0.09c-0.57-0.12-0.931-0.42-1.141-0.93c-0.21-0.48-0.12-0.96-0.12-1.53
			c-0.03-0.81-0.09-1.739-0.06-2.67l0.09-3.689c0-1.29-0.03-2.49-0.03-3.54c0.03-0.63,0-1.229,0-1.83
			c-0.03-0.569,0.03-1.17-0.06-1.68c0.09-0.09-0.061-0.24,0.06-0.33c-0.149-0.3,0.15-1.02-0.12-1.29
			c-0.72-0.03-1.439-0.27-2.16-0.18l-1.379,0.24c0,0.119-0.09,0.119-0.12,0.21c0.09,0.689,0.03,1.439,0,2.189
			c0,1.561,0.09,3.15,0,4.71c-0.091,1.8,0,3,0,4.47c0,0.21-0.06,0.48,0.06,0.51c-0.21,0.36,0,1.021,0,1.5
			c-0.029,0.33-0.09,0.66-0.09,1.021c0,0.72,0.03,1.529,0.12,2.22c0.03,0.359,0.149,0.689,0.239,1.05
			c0.24,0.69,0.721,1.11,1.11,1.68c0.33,0.21,0.421,0.42,0.69,0.63c0.21,0.15,0.48,0.24,0.72,0.391c0.24,0.12,0.479,0.239,0.72,0.33
			c0.33,0.09,0.631,0.18,1.08,0.21c0.93,0.12,1.859,0.06,2.79-0.15l0.54-0.09l0.391-0.24l0.359-0.149
			c0.119-0.091,0.21-0.12,0.3-0.211c0.12-0.09,0.271-0.09,0.36-0.18c0.209-0.149,0.359-0.33,0.57-0.54
			c0.33-0.27,0.449-0.479,0.659-0.81l0.181-0.24c0.029-0.09,0-0.15,0.029-0.18c0-0.09,0.061-0.09,0.09-0.181
			c0.121-0.39,0.15-0.899,0.24-1.229c0.09-0.21,0.12-0.36,0.15-0.45c0.029-0.33-0.03-0.87-0.061-1.229
			c-0.029-0.811,0.15-1.71,0.03-2.43c0.12-1.051,0.03-2.04,0.03-3c0-1.11,0.029-2.16,0.029-3.33c0-0.6,0-1.11-0.029-1.68
			C11.514,4.354,11.783,3.003,11.693,1.323z M0.384,1.293c0-0.03,0.12-0.06,0.12,0.03C0.443,1.323,0.414,1.323,0.384,1.293z
			 M27.053,4.653c-0.209-0.84-0.629-1.471-1.08-2.07c-0.449-0.33-0.75-0.75-1.229-1.02c-0.21-0.12-0.54-0.181-0.659-0.391
			c-0.33-0.149-0.57-0.27-1.021-0.3l-1.14-0.09c-0.211,0-0.45,0-0.69,0.03c-0.33,0.029-0.72,0.06-1.05,0.149l-0.78,0.271
			c-0.63,0.239-1.26,0.569-1.71,0.96l-0.27,0.24c-0.15,0.27-0.391,0.42-0.6,0.689c-0.091,0.12-0.15,0.27-0.24,0.42
			c-0.121,0.33-0.301,0.57-0.301,0.93c-0.209,0.48-0.24,1.021-0.33,1.53c0,0.21-0.029,0.479,0,0.69c0,0.09,0.061,0.18,0.061,0.27
			c-0.03,0.96,0.18,1.68,0.54,2.37c0.21,0.21,0.271,0.479,0.479,0.689l0.271,0.24c0.239,0.24,0.51,0.42,0.72,0.63l0.3,0.24
			c0.12,0.15,0.24,0.21,0.39,0.33c0.211,0.21,0.301,0.45,0.631,0.54c0.09,0.21,0.3,0.33,0.449,0.42c0.03,0.12,0.09,0.21,0.24,0.24
			c0.15,0.21,0.42,0.329,0.57,0.54c0.09,0.029,0.029,0.06,0.12,0.06c0.69,0.81,1.68,1.26,2.28,2.1c0.33,0.69,0.689,1.681,0.359,2.55
			c-0.391,0.36-0.811,0.87-1.5,1.021c-0.57,0.12-1.08-0.181-1.56-0.33c-0.72-0.63-0.57-2.22-0.57-3.42
			c-0.09-0.03-0.06-0.06-0.149-0.15c-1.17-0.029-2.371-0.329-3.48,0.061c-0.12,0.569-0.21,1.41-0.061,2.1
			c-0.029,0.03-0.029,0.061-0.029,0.12c0.15,0.87,0.12,1.71,0.57,2.43c-0.03,0.09,0.029,0.061,0,0.15
			c0.33,0.33,0.42,0.779,0.779,0.99c-0.029,0.029,0.061,0.06,0.061,0.149c0.21,0.09,0.27,0.24,0.51,0.271
			c0.029,0.09,0.24,0.3,0.449,0.39c0.091,0.09,0.211,0.12,0.301,0.09c0.21,0.33,0.84,0.39,1.199,0.51c0.091,0.03,0.15,0,0.24,0
			c0.09,0.091,0.301,0.03,0.45,0.03c0.45,0,0.96-0.03,1.32-0.03c0.09-0.029,0.21,0.03,0.3,0.03s0.09-0.06,0.18-0.06
			c0.6-0.091,1.08-0.061,1.65-0.33c0.119,0.029,0.18-0.061,0.3-0.061c0.149-0.149,0.33-0.239,0.54-0.359
			c0.33-0.091,0.51-0.301,0.72-0.511l0.12-0.09c0.09-0.09,0.03-0.149,0.12-0.24l0.18-0.18l0.15-0.21
			c0.09-0.149,0.239-0.27,0.33-0.42c0.12-0.21,0.21-0.51,0.3-0.78c0.21-0.75,0.48-1.47,0.391-2.55c0-0.21,0-0.359-0.031-0.569
			c0-0.12-0.09-0.21-0.09-0.33c-0.029-0.15,0-0.3-0.029-0.45c-0.03-0.15-0.12-0.24-0.211-0.45c-0.209-0.359-0.299-0.84-0.569-1.08
			c-0.24-0.449-0.569-0.81-0.899-1.14s-0.57-0.51-0.9-0.84c-0.21-0.21-0.33-0.45-0.6-0.54c-0.391-0.39-0.811-0.75-1.32-1.08
			c-0.33-0.24-0.63-0.54-0.96-0.81c-0.12-0.12-0.24-0.181-0.33-0.301c-0.12-0.119-0.21-0.3-0.33-0.42
			c-0.36-0.449-0.72-0.869-0.93-1.439c-0.181-0.57-0.24-1.05-0.15-1.5c0.15-0.21,0.181-0.42,0.39-0.54
			c0.211-0.21,0.48-0.24,0.811-0.36c0.3-0.09,0.48-0.149,0.51-0.149c0.33-0.03,0.54,0.09,0.811,0.18c0.119,0,0.209-0.03,0.3,0
			c0.21,0.09,0.39,0.271,0.54,0.51c0.24,0.36,0.27,0.78,0.359,1.23c0.09,0.57-0.029,1.2,0,1.68c0.24,0.21,0.48,0.15,0.811,0.24
			c0.09,0,0.09,0.06,0.18,0.06c0.24,0.03,0.48,0,0.75,0s0.51-0.03,0.779-0.03c0.391,0,0.811,0.03,1.171-0.119
			c0.03-0.811,0.18-1.62,0.09-2.37C27.293,5.463,27.143,5.043,27.053,4.653z M36.083,17.072c-0.09-1.41,0.06-2.819,0.06-4.109
			c0-0.21-0.029-0.66,0-0.99c0-0.12,0.031-0.21,0.061-0.33c0-0.27-0.029-0.57-0.029-0.899v-0.391c0-0.149,0.029-0.33,0-0.479
			c0-0.09-0.061-0.061-0.091-0.15c-0.09-0.33,0-0.78,0-1.17c0-1.17,0-2.25-0.03-3.3c0-1.439,0.061-2.79-0.06-4.109
			c-0.271-0.15-0.66-0.12-1.05-0.12c-0.93,0-1.71,0.029-2.43,0.12c-0.03,0.09-0.03,0.18-0.15,0.18c0.029,1.59,0,3.3,0,5.22
			c0.029,1.439,0,3.27,0,5.069c0.029,1.8,0.12,3.66,0.09,5.22c-0.029,1.681-0.09,3.42,0.03,5.34c0.21,0.211,0.54,0.15,0.87,0.181
			c0.689,0.09,1.289,0.06,1.89-0.03c0.36-0.03,0.69,0.03,0.96-0.18c0.061-1.26,0.061-2.521,0-3.811L36.083,17.072z M54.082,18.872
			c-0.09-1.05-0.09-2.13-0.119-3.18c0-0.569,0.029-1.109,0-1.62c-0.09-2.039,0.119-4.47,0.029-6.749c0-0.69,0.061-1.38,0.09-2.07
			c0-0.689-0.029-1.35-0.029-2.04c0-0.689,0-1.319-0.03-2.01c-1.11-0.33-2.34-0.3-3.569-0.09c-0.03,1.08,0,1.95,0,3.12v0.81
			c0.029,1.35,0,2.7,0,4.02c0.029,0.69,0.06,1.29,0.029,1.98l-0.119,1.89c-0.811-1.53-1.471-3.12-2.101-4.8
			c-0.329-0.81-0.689-1.59-1.05-2.4c-0.449-0.93-0.689-2.01-1.26-2.85c-0.21-0.6-0.391-1.229-0.721-1.739
			c-0.09-0.03-0.119,0.029-0.149-0.061c-1.05-0.149-2.31-0.03-3.271,0.12c-0.119,2.55-0.029,4.83,0,7.109
			c0,1.051-0.09,2.07-0.06,3.03c0.03,0.33-0.03,0.69-0.03,1.05v2.311c-0.029,0.81,0.061,1.439,0.03,2.189
			c-0.03,0.45-0.09,0.84-0.06,1.29c0,0.33,0.06,0.689,0.09,1.08c0.029,0.39,0,0.81-0.03,1.199c0,0.21-0.03,0.511,0.06,0.721
			c-0.119,0.149-0.09,0.63,0,0.84c1.171,0.21,2.371,0.36,3.42,0c0.031-0.12,0.091-0.061,0.211-0.09c0-0.75,0-1.53,0.09-2.28
			c0-0.24,0.06-0.51,0.06-0.78c0-0.359-0.06-0.72-0.06-1.109c-0.03-0.36-0.03-0.72-0.03-1.08c-0.03-2.07-0.09-4.02-0.06-6.18
			c0.029,0.09,0.06,0.27,0.149,0.3c0.03,0.27,0.181,0.48,0.271,0.72c0.57,1.29,1.199,2.46,1.65,3.69l0.6,1.529
			c0.119,0.57,0.359,0.99,0.57,1.471c0.389,1.079,0.869,1.979,1.229,3.029c0.149,0.24,0.271,0.51,0.36,0.811
			c0.359,0,0.75,0.06,1.139,0.09c0.841,0.09,1.711-0.03,2.58-0.03c-0.029-0.12,0.09-0.12,0.09-0.21
			C53.992,20.912,54.113,19.923,54.082,18.872z M70.282,10.743c-0.749,0.09-1.8,0.029-2.61,0c-0.449,0-0.869-0.061-1.319-0.03
			s-0.87-0.03-1.319,0c0,0.06-0.061,0.12-0.15,0.149c-0.33,0.96-0.36,2.16-0.15,3.24c0.57-0.03,1.23,0,1.801-0.03
			c0.09,0.45,0.029,0.96,0.029,1.44c0,0.45,0.09,0.87,0.061,1.319c-0.09,0.391-0.211,0.69-0.33,1.021
			c-0.271,0.39-0.721,0.66-1.32,0.81c-0.15,0.03-0.359,0.09-0.51,0.061c-0.24,0-0.721-0.09-0.93-0.181
			c-0.33-0.149-0.66-0.72-0.75-1.109c-0.211-1.08-0.181-2.31-0.181-3.36c0-0.51,0.06-1.02,0.06-1.59c0-0.569-0.029-1.17,0-1.77
			c0-0.45-0.06-1.08-0.029-1.65c0.029-0.479,0.061-0.96,0.061-1.439c0-0.48-0.031-1.021,0-1.5c0.029-0.6,0.18-0.87,0.51-1.11
			c0.18-0.18,0.42-0.33,0.72-0.42c0.271-0.12,0.569-0.18,0.899-0.27c0.45,0.12,0.84,0.18,1.11,0.45c0.69,0.72,0.72,2.01,0.63,3.239
			c1.109,0.03,2.49,0.3,3.66,0.03c0.09-0.24,0-0.51,0.029-0.78c0.09-0.6,0.09-1.229,0-1.859c-0.029-0.271-0.149-0.57-0.27-0.9
			c-0.18-0.63-0.42-1.14-0.72-1.59c-0.36-0.57-0.72-1.05-1.29-1.38c-0.21-0.09-0.36-0.09-0.45-0.24c-0.33-0.03-0.601-0.12-0.87-0.21
			l-0.42-0.09c-0.21-0.03-0.33-0.12-0.54-0.15c-0.93-0.09-1.71,0.03-2.52,0.12c-1.05,0.15-1.771,0.78-2.61,1.23
			c-0.119,0.09-0.18,0.21-0.33,0.3c-0.09,0.21-0.24,0.36-0.39,0.57l-0.39,0.54c-0.09,0.149-0.09,0.329-0.18,0.479l-0.181,0.48
			c-0.149,0.51-0.12,1.169-0.149,1.739c-0.03,1.44,0.06,2.97,0.09,4.65c0.029,2.159,0,3.959,0.029,5.879
			c0.24,0.57-0.06,1.351,0.271,2.16c0.21,0.601,0.69,1.08,1.05,1.561c0.391,0.51,0.84,0.96,1.35,1.29
			c0.211,0.029,0.36,0.149,0.48,0.149v-0.03c0.15,0-0.03,0.061,0.061,0.061c0.51,0.24,1.049,0.36,1.649,0.36
			c0.6,0,1.14-0.061,1.62-0.181c0.449-0.149,0.869-0.39,1.32-0.6c0.359-0.15,0.719-0.21,0.93-0.54c0.209,0.33,0.09,0.81,0.33,1.05
			c0.09,0.09,0.119-0.09,0.119-0.06c0.51,0.21,1.26,0.239,1.86,0.149c0.09-0.12,0.149-0.12,0.239-0.21
			c0.031-0.09-0.029-0.149-0.06-0.3c-0.03-0.45,0.091-0.96,0.06-1.47c-0.09-1.681-0.029-3.15-0.119-4.68
			c-0.09-1.801,0.15-3.15,0.119-4.681C70.252,10.862,70.373,10.833,70.282,10.743z M97.762,18.542l-0.57-1.649
			c-0.209-0.57-0.39-1.11-0.539-1.68c-0.33-0.63-0.51-1.41-0.721-2.13c0.27-0.12,0.45-0.33,0.66-0.54c0.57-0.45,1.02-0.9,1.41-1.5
			c0.24-0.391,0.39-0.84,0.51-1.351c0.15-0.6,0.24-1.199,0.27-1.829c0.031-0.271,0-0.54-0.029-0.811c-0.03-0.57,0.09-1.17-0.03-1.68
			c-0.03-0.27-0.12-0.54-0.21-0.87c-0.15-0.27-0.3-0.51-0.39-0.899c-0.39-0.721-0.931-1.381-1.62-1.83c-0.09-0.09-0.15,0.09-0.18,0
			c-0.33-0.21-0.6-0.271-1.051-0.391c-1.56-0.359-3.479-0.449-5.279-0.449c-0.721,0-1.529,0-2.22,0.09
			c0.03,0.12-0.06,0.18-0.091,0.27c-0.029,1.17,0.031,2.1,0.031,3.39c0,0.99-0.031,1.95-0.061,2.761c-0.03,0.63,0,1.079,0,1.649
			c0,0.72-0.12,1.38-0.09,2.07c0.09,1.56,0,2.97,0,4.199c0,0.69,0,1.351-0.03,1.98c0,0.239-0.03,0.51,0,0.75
			c0.09,0.569,0,1.08-0.03,1.649c-0.029,0.93-0.029,1.59-0.029,2.19c0.51,0.21,0.93,0.27,1.5,0.359
			c0.81,0.091,1.529,0.091,2.129-0.149c0-0.21,0.121-0.3,0.15-0.51v-0.811c0.03-0.75,0-1.53-0.029-2.34
			c0-0.12,0.029-0.24,0.029-0.36c-0.029-1.47,0.03-2.999,0.12-4.409c0.36,0.09,0.96,0.09,1.229,0c0.03,0.33,0.15,0.51,0.24,0.72
			c0.36,1.05,0.69,2.04,1.02,3.09c0.211,0.63,0.33,1.229,0.541,1.83c0.33,0.96,0.6,1.77,0.869,2.64c0.36,0.03,0.69,0.15,1.141,0.24
			c0.869,0.21,1.83,0.15,2.459-0.061c0.15-0.39-0.09-0.72-0.239-1.109C98.361,20.192,98.092,19.353,97.762,18.542z M87.952,1.323
			c-0.149,0-0.03,0,0-0.09C88.043,1.233,87.952,1.293,87.952,1.323z M95.032,7.293c0,0.48,0,0.87-0.091,1.35
			c-0.09,0.36-0.06,0.57-0.27,0.78c-0.75,0.51-1.949,0.51-3.24,0.479c-0.119-0.359-0.06-0.869-0.029-1.319c0.029-1.23,0-2.73,0-3.84
			c0.39,0,0.869,0.03,1.199,0c0.57-0.03,1.291-0.03,1.74,0.18c0.301,0.15,0.48,0.33,0.57,0.54
			C95.122,5.913,95.002,6.663,95.032,7.293z M114.352,4.653c-0.21-0.84-0.63-1.471-1.08-2.07c-0.45-0.33-0.75-0.75-1.23-1.02
			c-0.21-0.12-0.539-0.181-0.659-0.391c-0.33-0.149-0.57-0.27-1.021-0.3l-1.14-0.09c-0.21,0-0.45,0-0.69,0.03
			c-0.33,0.029-0.72,0.06-1.05,0.149l-0.779,0.271c-0.63,0.239-1.261,0.569-1.71,0.96l-0.271,0.24c-0.149,0.27-0.39,0.42-0.6,0.689
			c-0.09,0.12-0.15,0.27-0.24,0.42c-0.12,0.33-0.3,0.57-0.3,0.93c-0.21,0.48-0.24,1.021-0.33,1.53c0,0.21-0.03,0.479,0,0.69
			c0,0.09,0.061,0.18,0.061,0.27c-0.031,0.96,0.18,1.68,0.539,2.37c0.21,0.21,0.271,0.479,0.48,0.689l0.27,0.24
			c0.24,0.24,0.51,0.42,0.721,0.63l0.3,0.24c0.12,0.15,0.239,0.21,0.39,0.33c0.21,0.21,0.3,0.45,0.63,0.54
			c0.09,0.21,0.3,0.33,0.45,0.42c0.03,0.12,0.09,0.21,0.24,0.24c0.149,0.21,0.42,0.329,0.569,0.54c0.091,0.029,0.03,0.06,0.12,0.06
			c0.69,0.81,1.68,1.26,2.28,2.1c0.33,0.69,0.689,1.681,0.359,2.55c-0.39,0.36-0.81,0.87-1.499,1.021
			c-0.57,0.12-1.08-0.181-1.561-0.33c-0.72-0.63-0.57-2.22-0.57-3.42c-0.09-0.03-0.06-0.06-0.149-0.15
			c-1.17-0.029-2.37-0.329-3.479,0.061c-0.121,0.569-0.211,1.41-0.061,2.1c-0.029,0.03-0.029,0.061-0.029,0.12
			c0.149,0.87,0.119,1.71,0.569,2.43c-0.03,0.09,0.03,0.061,0,0.15c0.33,0.33,0.42,0.779,0.78,0.99
			c-0.03,0.029,0.06,0.06,0.06,0.149c0.21,0.09,0.271,0.24,0.51,0.271c0.03,0.09,0.24,0.3,0.45,0.39c0.09,0.09,0.21,0.12,0.3,0.09
			c0.21,0.33,0.84,0.39,1.2,0.51c0.09,0.03,0.15,0,0.24,0c0.09,0.091,0.3,0.03,0.45,0.03c0.449,0,0.96-0.03,1.319-0.03
			c0.09-0.029,0.21,0.03,0.3,0.03c0.091,0,0.091-0.06,0.181-0.06c0.6-0.091,1.08-0.061,1.649-0.33c0.12,0.029,0.181-0.061,0.3-0.061
			c0.15-0.149,0.33-0.239,0.54-0.359c0.33-0.091,0.511-0.301,0.721-0.511l0.12-0.09c0.09-0.09,0.029-0.149,0.119-0.24l0.181-0.18
			l0.149-0.21c0.09-0.149,0.24-0.27,0.33-0.42c0.12-0.21,0.21-0.51,0.3-0.78c0.21-0.75,0.48-1.47,0.391-2.55
			c0-0.21,0-0.359-0.03-0.569c0-0.12-0.09-0.21-0.09-0.33c-0.03-0.15,0-0.3-0.03-0.45s-0.12-0.24-0.21-0.45
			c-0.21-0.359-0.3-0.84-0.57-1.08c-0.239-0.449-0.569-0.81-0.899-1.14s-0.57-0.51-0.9-0.84c-0.21-0.21-0.33-0.45-0.6-0.54
			c-0.39-0.39-0.81-0.75-1.32-1.08c-0.33-0.24-0.63-0.54-0.96-0.81c-0.119-0.12-0.239-0.181-0.33-0.301
			c-0.119-0.119-0.21-0.3-0.33-0.42c-0.359-0.449-0.72-0.869-0.93-1.439c-0.18-0.57-0.24-1.05-0.149-1.5
			c0.149-0.21,0.18-0.42,0.39-0.54c0.21-0.21,0.48-0.24,0.81-0.36c0.301-0.09,0.48-0.149,0.511-0.149
			c0.33-0.03,0.539,0.09,0.81,0.18c0.12,0,0.21-0.03,0.3,0c0.21,0.09,0.391,0.271,0.54,0.51c0.24,0.36,0.271,0.78,0.36,1.23
			c0.09,0.57-0.03,1.2,0,1.68c0.24,0.21,0.479,0.15,0.81,0.24c0.09,0,0.09,0.06,0.18,0.06c0.24,0.03,0.48,0,0.75,0
			c0.271,0,0.511-0.03,0.78-0.03c0.391,0,0.811,0.03,1.17-0.119c0.03-0.811,0.18-1.62,0.09-2.37
			C114.592,5.463,114.441,5.043,114.352,4.653z M130.011,4.653c-0.21-0.84-0.63-1.471-1.079-2.07c-0.45-0.33-0.75-0.75-1.23-1.02
			c-0.21-0.12-0.54-0.181-0.66-0.391c-0.33-0.149-0.569-0.27-1.02-0.3l-1.141-0.09c-0.209,0-0.449,0-0.689,0.03
			c-0.33,0.029-0.72,0.06-1.05,0.149l-0.78,0.271c-0.63,0.239-1.26,0.569-1.71,0.96l-0.27,0.24c-0.15,0.27-0.391,0.42-0.601,0.689
			c-0.09,0.12-0.149,0.27-0.239,0.42c-0.12,0.33-0.301,0.57-0.301,0.93c-0.21,0.48-0.239,1.021-0.33,1.53c0,0.21-0.029,0.479,0,0.69
			c0,0.09,0.061,0.18,0.061,0.27c-0.03,0.96,0.18,1.68,0.54,2.37c0.21,0.21,0.27,0.479,0.479,0.689l0.271,0.24
			c0.24,0.24,0.51,0.42,0.72,0.63l0.3,0.24c0.12,0.15,0.24,0.21,0.391,0.33c0.21,0.21,0.3,0.45,0.63,0.54
			c0.09,0.21,0.3,0.33,0.449,0.42c0.03,0.12,0.091,0.21,0.24,0.24c0.15,0.21,0.42,0.329,0.57,0.54c0.09,0.029,0.03,0.06,0.12,0.06
			c0.689,0.81,1.68,1.26,2.279,2.1c0.33,0.69,0.69,1.681,0.36,2.55c-0.39,0.36-0.81,0.87-1.5,1.021c-0.57,0.12-1.08-0.181-1.56-0.33
			c-0.721-0.63-0.57-2.22-0.57-3.42c-0.09-0.03-0.06-0.06-0.15-0.15c-1.17-0.029-2.369-0.329-3.479,0.061
			c-0.12,0.569-0.21,1.41-0.06,2.1c-0.03,0.03-0.03,0.061-0.03,0.12c0.149,0.87,0.12,1.71,0.57,2.43c-0.03,0.09,0.029,0.061,0,0.15
			c0.329,0.33,0.42,0.779,0.779,0.99c-0.03,0.029,0.061,0.06,0.061,0.149c0.21,0.09,0.27,0.24,0.51,0.271
			c0.03,0.09,0.24,0.3,0.45,0.39c0.09,0.09,0.21,0.12,0.3,0.09c0.21,0.33,0.84,0.39,1.2,0.51c0.09,0.03,0.149,0,0.239,0
			c0.091,0.091,0.301,0.03,0.45,0.03c0.45,0,0.96-0.03,1.32-0.03c0.09-0.029,0.21,0.03,0.3,0.03s0.09-0.06,0.18-0.06
			c0.601-0.091,1.08-0.061,1.65-0.33c0.12,0.029,0.18-0.061,0.3-0.061c0.15-0.149,0.33-0.239,0.54-0.359
			c0.33-0.091,0.51-0.301,0.72-0.511l0.12-0.09c0.09-0.09,0.03-0.149,0.12-0.24l0.18-0.18l0.15-0.21c0.09-0.149,0.24-0.27,0.33-0.42
			c0.12-0.21,0.21-0.51,0.3-0.78c0.21-0.75,0.479-1.47,0.39-2.55c0-0.21,0-0.359-0.029-0.569c0-0.12-0.091-0.21-0.091-0.33
			c-0.029-0.15,0-0.3-0.029-0.45c-0.03-0.15-0.12-0.24-0.21-0.45c-0.21-0.359-0.301-0.84-0.57-1.08c-0.24-0.449-0.57-0.81-0.9-1.14
			s-0.569-0.51-0.899-0.84c-0.21-0.21-0.33-0.45-0.601-0.54c-0.39-0.39-0.81-0.75-1.319-1.08c-0.33-0.24-0.63-0.54-0.96-0.81
			c-0.12-0.12-0.24-0.181-0.33-0.301c-0.12-0.119-0.21-0.3-0.33-0.42c-0.36-0.449-0.72-0.869-0.93-1.439
			c-0.181-0.57-0.24-1.05-0.15-1.5c0.15-0.21,0.18-0.42,0.391-0.54c0.21-0.21,0.479-0.24,0.81-0.36c0.3-0.09,0.479-0.149,0.51-0.149
			c0.33-0.03,0.54,0.09,0.81,0.18c0.12,0,0.211-0.03,0.301,0c0.21,0.09,0.39,0.271,0.54,0.51c0.239,0.36,0.27,0.78,0.359,1.23
			c0.091,0.57-0.029,1.2,0,1.68c0.24,0.21,0.48,0.15,0.811,0.24c0.09,0,0.09,0.06,0.18,0.06c0.24,0.03,0.479,0,0.75,0
			c0.27,0,0.51-0.03,0.78-0.03c0.39,0,0.81,0.03,1.17-0.119c0.029-0.811,0.18-1.62,0.09-2.37
			C130.251,5.463,130.102,5.043,130.011,4.653z M146.331,0.993c-0.09-0.03-0.181,0.09-0.271,0.09c-0.689,0.03-1.41,0.061-2.22-0.03
			c-2.189-0.09-4.62,0-6.779-0.029c-0.811,0-1.74-0.15-2.431-0.061c-0.359,0.99-0.51,2.46-0.18,3.51c0.271,0.12,0.6,0.12,0.93,0.12
			s0.69,0.061,1.021,0.061c0.81,0,1.56-0.03,2.31,0c0.09,0.569,0,0.81-0.029,1.38c-0.091,0.93,0.029,1.68-0.061,2.609
			c-0.09,1.17,0.03,2.34,0.03,3.51c0,1.2,0.03,2.34,0.03,3.51c0,1.11-0.12,2.07-0.12,3.12c0,1.17,0.09,2.16,0,3.24
			c0.329,0.21,0.689,0.24,1.05,0.27c0.39,0.03,0.84,0.15,1.2,0.061c0.029,0,0.06,0.03,0.09,0.03c0.449,0,0.87-0.15,1.319-0.181
			c0-1.109,0.12-2.04,0.12-3.149c0-0.57-0.03-1.141,0-1.71c0-0.57-0.03-1.08,0-1.59c0-0.601,0.03-1.2,0.03-1.8
			c0-0.601,0.09-1.23,0-1.801c0-0.09-0.061-0.149-0.061-0.239c-0.029-0.36,0.061-0.75-0.06-1.11c0.03-0.39,0.09-0.93,0.09-1.5
			c0-0.36-0.06-0.72-0.06-1.05c0-0.45,0.06-0.9,0.06-1.35c-0.03-0.811-0.12-1.5,0.03-2.311c0.15-0.09,0.15,0,0.3,0.03h0.42
			c0.45,0.03,0.84,0,1.23,0c0.569,0,1.14-0.09,1.619,0c0.15,0,0.271,0.12,0.42,0.03c0.21-0.45,0.391-0.87,0.421-1.5
			c0-0.36-0.03-0.78-0.12-1.17C146.661,1.833,146.48,0.993,146.331,0.993z M162.171,1.323c-0.091-0.03-0.061-0.12-0.091-0.21
			c-0.6-0.21-1.38-0.391-2.069-0.18c-0.21-0.03-0.51,0.029-0.78,0.06c-0.3,0.03-0.57,0.09-0.779,0.18l-0.061,1.8
			c0,0.15,0.03,0.271,0.03,0.42c0,0.15-0.061,0.301-0.061,0.45c0,0.87,0.03,1.561,0.03,2.37v2.04c-0.03,1.11-0.09,2.25-0.09,3.3
			c0.03,0.12-0.061,0-0.061,0.09c0.12,0,0.03,0.15,0.03,0.18c0,0.631,0,1.65,0.03,2.4c0.03,0.84,0.09,1.71,0,2.43
			c0.09,0.18,0.09,0.42,0,0.72c-0.03,0.15,0,0.33-0.09,0.45c-0.12,0.33-0.69,0.63-1.05,0.72c-0.091,0.03-0.181,0-0.271,0.03
			s-0.18,0.09-0.27,0.09c-0.33,0.03-0.601-0.06-0.811-0.09c-0.569-0.12-0.93-0.42-1.14-0.93c-0.21-0.48-0.12-0.96-0.12-1.53
			c-0.03-0.81-0.09-1.739-0.06-2.67l0.09-3.689c0-1.29-0.03-2.49-0.03-3.54c0.03-0.63,0-1.229,0-1.83
			c-0.03-0.569,0.03-1.17-0.06-1.68c0.09-0.09-0.061-0.24,0.06-0.33c-0.15-0.3,0.15-1.02-0.12-1.29c-0.72-0.03-1.439-0.27-2.16-0.18
			l-1.38,0.24c0,0.119-0.09,0.119-0.119,0.21c0.09,0.689,0.029,1.439,0,2.189c0,1.561,0.09,3.15,0,4.71c-0.091,1.8,0,3,0,4.47
			c0,0.21-0.061,0.48,0.06,0.51c-0.21,0.36,0,1.021,0,1.5c-0.03,0.33-0.09,0.66-0.09,1.021c0,0.72,0.03,1.529,0.12,2.22
			c0.029,0.359,0.149,0.689,0.239,1.05c0.24,0.69,0.721,1.11,1.11,1.68c0.33,0.21,0.42,0.42,0.689,0.63
			c0.211,0.15,0.48,0.24,0.721,0.391c0.239,0.12,0.479,0.239,0.72,0.33c0.33,0.09,0.63,0.18,1.08,0.21
			c0.93,0.12,1.859,0.06,2.79-0.15l0.54-0.09l0.39-0.24l0.36-0.149c0.12-0.091,0.21-0.12,0.3-0.211c0.12-0.09,0.27-0.09,0.359-0.18
			c0.211-0.149,0.36-0.33,0.57-0.54c0.33-0.27,0.45-0.479,0.66-0.81l0.18-0.24c0.03-0.09,0-0.15,0.03-0.18
			c0-0.09,0.06-0.09,0.09-0.181c0.12-0.39,0.15-0.899,0.24-1.229c0.09-0.21,0.12-0.36,0.149-0.45c0.03-0.33-0.029-0.87-0.06-1.229
			c-0.03-0.811,0.15-1.71,0.03-2.43c0.12-1.051,0.029-2.04,0.029-3c0-1.11,0.03-2.16,0.03-3.33c0-0.6,0-1.11-0.03-1.68
			C161.99,4.354,162.261,3.003,162.171,1.323z M150.861,1.293c0-0.03,0.119-0.06,0.119,0.03
			C150.921,1.323,150.891,1.323,150.861,1.293z M178.73,14.522l-0.061-0.569c-0.09-0.33-0.239-0.541-0.359-0.811
			c-0.09-0.21-0.15-0.39-0.24-0.54c-0.15-0.27-0.42-0.45-0.66-0.66l-0.72-0.63c0.57-0.54,0.99-1.229,1.26-2.1
			c0.33-0.93,0.48-1.8,0.33-2.85c-0.09-0.631-0.12-1.23-0.27-1.8l-0.271-0.631c-0.21-0.479-0.359-0.72-0.63-1.109
			c-0.09-0.15-0.21-0.33-0.36-0.48c-0.239-0.21-0.539-0.359-0.869-0.569c-0.931-0.511-2.07-0.78-3.48-0.75
			c-0.569,0-1.08,0.09-1.649,0.06c-1.23,0-2.82-0.06-3.69,0.03c0.15,1.29,0.03,2.58,0.03,3.899c0,1.32,0.03,2.67,0.03,3.99
			c0,2.04,0,3.899-0.09,5.7c-0.03,0.689,0.029,1.26,0.029,1.89c0,0.39,0.03,0.75,0.03,1.109c-0.09,1.53,0.06,2.851-0.03,4.26
			c0.15,0.03,0.24,0.12,0.36,0.15c0.27,0.09,0.66,0,1.02,0c0.63,0.03,1.29,0.06,1.92,0.03c0.33,0,0.601-0.03,0.87-0.03
			c0.63-0.09,1.62,0,2.37,0c0.42,0,0.81-0.03,1.17-0.09c0.33-0.09,0.66-0.061,0.9-0.271c0.329-0.09,0.63-0.119,0.75-0.39
			c0.329-0.27,0.779-0.54,1.05-0.9c0.33-0.39,0.51-0.93,0.72-1.409c0.27-0.57,0.51-1.29,0.51-1.86c0.09-0.149,0.061-0.33,0.09-0.479
			l0.091-0.511c0-0.359-0.091-0.689-0.091-1.05L178.73,14.522z M170.811,6.753c0.03-0.12,0.03-0.24,0-0.33
			c0.09-0.6-0.03-1.109,0-1.74c1.23-0.09,2.88-0.359,3.51,0.45c0.03,0.36,0.18,0.69,0.21,1.05c0.03,0.24,0.03,0.48,0.03,0.811
			c0,0.21-0.03,0.33-0.03,0.54c0,0.569,0.03,1.14-0.06,1.59c-0.36,0.24-0.72,0.6-1.29,0.72c-0.72,0.12-1.62,0-2.37,0
			C170.9,8.673,170.9,7.923,170.811,6.753z M174.95,17.553c-0.029,0.12-0.239,0.42-0.33,0.54c-0.239,0.33-0.569,0.42-1.079,0.51
			c-0.841,0.149-1.681,0.09-2.641,0c0.03-1.68-0.09-3.06,0-5.13c0.811-0.12,1.141-0.03,1.98-0.03c0.149,0,0.3-0.03,0.449-0.03
			c0.36-0.029,1.08,0.181,1.29,0.391s0.42,0.75,0.42,1.2v0.479c0,0.45-0.029,0.96-0.029,1.35
			C175.04,17.072,175.101,17.312,174.95,17.553z M195.02,18.452c-0.09-0.06-0.18-0.029-0.3,0.061c-0.21-0.09-0.51,0.029-0.72-0.061
			c-0.12,0.061-0.24,0.09-0.39,0.09c-1.92,0.091-4.14-0.09-6.09-0.09c-0.15-1.56-0.03-3.6,0.06-5.04c1.05,0,1.98-0.09,2.91,0
			c0.03,0.03,0.03,0,0.03-0.029c0.75-0.03,1.47,0,2.22,0.029c0.21,0,0.42,0,0.63-0.029c0.24-1.2,0.15-2.521-0.06-3.48
			c-0.211-0.09-0.511-0.029-0.721-0.029c-0.09,0-0.18-0.03-0.27-0.03c-0.36,0-0.66-0.06-0.99,0.03c-1.08-0.12-2.58,0-3.75,0
			c-0.359-1.05-0.18-2.311-0.149-3.54l0.029-0.03c0.03-0.359,0.061-0.689,0.061-1.05v-0.06c-0.03-0.03-0.03-0.12-0.03-0.33
			c1.23,0,2.4,0.029,3.57,0c0.479,0,0.96,0.06,1.47,0.06c0.569,0,0.99-0.03,1.56,0c0.271,0,0.54,0.09,0.87,0
			c0.09-0.27,0.15-0.66,0.15-0.899c0.149-0.69,0.09-1.23,0.09-1.98c-0.09-0.149-0.09-0.39-0.12-0.54
			c-0.03-0.21-0.061-0.33-0.061-0.39c-0.239-0.09-0.449-0.03-0.689-0.03c-0.84,0-1.68-0.09-2.52-0.06
			c-2.67,0.12-5.311-0.12-7.95,0.09c0,0.09-0.06,0.149-0.149,0.21c0,1.32,0,2.88-0.03,4.35h-0.03v0.09
			c0.03,0.03,0.03,0.03,0.03,0.061c0.09,1.319,0,2.79,0.03,3.96c-0.091,0.239-0.061,0.63-0.03,0.899c0,0.33,0,0.601,0.03,0.93
			c0,0.33,0.06,0.69,0.06,1.051c0,0.149-0.09,0.27,0,0.42c-0.09,0.09-0.03,0.149-0.06,0.27c-0.03,1.2-0.091,2.28,0,3.45
			c0.029,0.569-0.03,1.17,0,1.739c0.09,1.171,0,2.341,0.09,3.54c0.09,0.09,0.149,0.061,0.239,0.15c1.29,0,2.4,0.06,3.721-0.03
			c1.17-0.03,2.159-0.21,3.21-0.18l3.72,0.06c0.06,0.12,0.149,0.15,0.27,0.061c0.03-0.33,0.21-0.78,0.12-1.11
			C195.32,20.223,195.17,19.143,195.02,18.452z"/>
	</g>
</g>
</svg>
