<?xml version="1.0" encoding="utf-8"?>
<!-- Generator: Adobe Illustrator 15.1.0, SVG Export Plug-In . SVG Version: 6.00 Build 0)  -->
<!DOCTYPE svg PUBLIC "-//W3C//DTD SVG 1.1//EN" "http://www.w3.org/Graphics/SVG/1.1/DTD/svg11.dtd">
<svg version="1.1" id="Layer_1" xmlns="http://www.w3.org/2000/svg" xmlns:xlink="http://www.w3.org/1999/xlink" x="0px" y="0px"
	 width="509px" height="291px" viewBox="0 0 509 291" enable-background="new 0 0 509 291" xml:space="preserve">
<g>
	<g>
		<path fill="#D1ECE8" d="M39.307,278.277c-0.084-0.23-0.168-0.439-0.273-0.588c-0.063-0.104-0.126-0.167-0.21-0.271
			c-0.147-0.168-0.252-0.357-0.42-0.525c-0.189-0.168-0.252-0.211-0.483-0.295c-0.399-0.167-0.756-0.271-1.155-0.377
			c-0.168-0.062-0.357-0.042-0.546-0.062c-0.063,0-0.105-0.043-0.168-0.043c-0.189-0.062-0.378-0.021-0.609-0.041
			c-0.273,0-0.567-0.064-0.798,0c-0.399-0.064-0.756,0-1.155,0c-0.525-0.021-1.176-0.127-1.617-0.064
			c-0.063,0.064-0.105,0.043-0.168,0.105c0.021,0.336,0,0.735,0,1.051c0,0.188,0.063,0.336,0.063,0.566c0.021,0.23,0,0.42,0,0.609
			c-0.021,0.23,0,0.377,0.021,0.608c0.021,0.399-0.042,0.819-0.021,1.218c0,0.105,0.021,0.23,0.021,0.336
			c0,0.146-0.021,0.23-0.021,0.377c0.021,0.316,0.021,0.609,0.021,0.945c0,0.42-0.063,0.84-0.063,1.281c0,0.482,0.021,0.902,0,1.385
			c0,0.525-0.063,1.051,0,1.576c0.063,0.482,0.021,0.924,0.021,1.406c0.021,0.566,0.021,1.133,0,1.701
			c-0.021,0.588,0,1.111,0.084,1.553c0.399,0.021,0.63,0.105,1.029,0.127c0.504,0.062,0.924-0.105,1.407-0.211
			c0.021-0.588-0.021-1.133,0-1.721c0.021-0.484,0-0.82,0-1.26c0-0.84,0-1.828,0.084-2.771c0.609-0.021,1.26,0.02,1.869-0.064
			c0.651-0.084,1.155-0.271,1.638-0.523l0.63-0.483c0.231-0.188,0.42-0.337,0.567-0.588c0.084-0.169,0.147-0.378,0.231-0.608
			c0.147-0.441,0.189-0.945,0.252-1.471c0.063-0.84,0.063-1.469-0.021-2.204C39.454,278.697,39.37,278.467,39.307,278.277z
			 M36.893,281.406c0,0.062-0.042,0.062-0.063,0.127c0,0.125,0,0.188-0.021,0.209l-0.189,0.273c-0.609,0.314-1.47,0.336-2.289,0.189
			c-0.168-1.26,0.042-2.332-0.021-3.591c0.777-0.063,1.68-0.147,2.268,0.167c0.252,0.42,0.462,0.924,0.441,1.408
			c-0.021,0.23-0.021,0.461-0.084,0.713C36.935,281.07,36.956,281.26,36.893,281.406z M53.566,288.252l-0.399-1.156
			c-0.147-0.398-0.273-0.775-0.378-1.176c-0.23-0.439-0.356-0.986-0.504-1.49c0.189-0.084,0.315-0.23,0.462-0.377
			c0.399-0.315,0.714-0.631,0.987-1.051c0.168-0.272,0.272-0.588,0.357-0.945c0.105-0.419,0.168-0.839,0.189-1.279
			c0.021-0.189,0-0.379-0.021-0.567c-0.021-0.399,0.063-0.819-0.021-1.176c-0.021-0.188-0.084-0.378-0.147-0.608
			c-0.105-0.189-0.21-0.357-0.273-0.631c-0.272-0.504-0.65-0.965-1.133-1.281c-0.063-0.062-0.105,0.064-0.126,0
			c-0.231-0.146-0.42-0.188-0.735-0.271c-1.092-0.252-2.435-0.315-3.695-0.315c-0.504,0-1.071,0-1.554,0.063
			c0.021,0.084-0.042,0.125-0.063,0.188c-0.021,0.819,0.021,1.47,0.021,2.372c0,0.693-0.021,1.365-0.042,1.932
			c-0.021,0.441,0,0.756,0,1.155c0,0.504-0.084,0.966-0.062,1.448c0.062,1.092,0,2.078,0,2.939c0,0.482,0,0.945-0.021,1.387
			c0,0.168-0.021,0.355,0,0.523c0.063,0.4,0,0.756-0.021,1.156c-0.021,0.65-0.021,1.111-0.021,1.531
			c0.357,0.148,0.651,0.189,1.05,0.252c0.567,0.064,1.071,0.064,1.491-0.104c0-0.148,0.083-0.211,0.104-0.357v-0.566
			c0.021-0.525,0-1.072-0.021-1.639c0-0.084,0.021-0.168,0.021-0.252c-0.021-1.029,0.021-2.1,0.084-3.086
			c0.252,0.062,0.672,0.062,0.861,0c0.021,0.23,0.104,0.357,0.168,0.504c0.252,0.734,0.482,1.428,0.714,2.162
			c0.147,0.441,0.231,0.861,0.378,1.281c0.231,0.672,0.42,1.238,0.608,1.848c0.252,0.021,0.483,0.105,0.798,0.168
			c0.609,0.146,1.281,0.105,1.721-0.043c0.105-0.271-0.062-0.504-0.167-0.775C53.986,289.406,53.797,288.818,53.566,288.252z
			 M46.701,276.199c-0.105,0-0.021,0,0-0.062C46.764,276.137,46.701,276.179,46.701,276.199z M51.655,280.377
			c0,0.337,0,0.609-0.062,0.945c-0.063,0.252-0.042,0.399-0.189,0.547c-0.525,0.356-1.365,0.356-2.268,0.336
			c-0.084-0.252-0.042-0.609-0.021-0.924c0.021-0.861,0-1.912,0-2.688c0.273,0,0.609,0.021,0.84,0
			c0.399-0.021,0.903-0.021,1.218,0.125c0.21,0.105,0.336,0.231,0.399,0.379C51.719,279.412,51.635,279.938,51.655,280.377z
			 M68.728,284.346c-0.062-0.357,0-0.713-0.021-1.112c0-0.315,0.021-0.651,0-0.966l-0.042-2.184c0-0.609,0-1.281-0.231-1.807
			c-0.231-0.523-0.42-1.027-0.819-1.469c-0.336-0.168-0.63-0.462-1.05-0.609l-0.147-0.041c-0.251-0.064-0.504-0.252-0.755-0.315
			c-0.735-0.147-1.449,0.021-2.1,0.126c-0.336,0.23-0.756,0.314-1.113,0.504c-0.357,0.189-0.588,0.462-0.84,0.734
			c-0.104,0.105-0.23,0.168-0.314,0.315c-0.147,0.147-0.21,0.315-0.273,0.546c-0.021,0.062-0.083,0.125-0.083,0.189
			c-0.063,0.23-0.021,0.42-0.042,0.607c-0.021,0.652-0.042,1.135-0.042,1.744v1.406c0,0.945-0.042,1.89-0.021,2.793
			c0,0.062,0.021,0.125,0.021,0.209c0,0.189-0.021,0.588-0.021,0.777c-0.021,0.021-0.021,0.105-0.021,0.273
			c-0.063,0.482,0.084,0.881,0.084,1.322c0.021,0.398,0.084,0.693,0.167,1.008c0.105,0.314,0.252,0.588,0.399,0.818l0.273,0.379
			c0.231,0.168,0.42,0.398,0.651,0.588l0.377,0.252c0.126,0.062,0.252,0.125,0.399,0.23l0.462,0.209
			c0.188,0.064,0.315,0.043,0.546,0.064c0.168,0,0.315,0.062,0.483,0.084c0.399,0.02,0.755-0.105,1.155-0.189
			c0.357-0.084,0.692-0.211,0.987-0.379c0.146-0.062,0.273-0.146,0.42-0.23l0.189-0.168c0.23-0.168,0.399-0.252,0.567-0.482
			c0.167-0.23,0.251-0.336,0.399-0.566c0.105-0.232,0.252-0.525,0.188-0.84c0.273-0.988,0.21-2.352,0.21-3.527
			c0-0.064,0.021-0.084,0.021-0.148C68.791,284.43,68.749,284.408,68.728,284.346z M66.146,287.264c0,0.021-0.042,0.084-0.063,0.148
			l-0.042,0.168c0,0.02-0.042,0.02-0.062,0.084c-0.021,0.02,0,0.084-0.021,0.104c-0.021,0.064-0.084,0.043-0.105,0.105
			c-0.357,0.441-1.029,0.609-1.784,0.42l-0.273-0.23c-0.021-0.021,0-0.043-0.021-0.105c-0.314-0.398-0.356-1.029-0.335-1.617
			c0.063-0.607-0.021-1.238-0.042-1.826c-0.063-1.596,0.042-3.023,0.042-4.641c0-0.314-0.042-0.482,0.063-0.734
			c0.063-0.104,0.23-0.336,0.314-0.398c0.273-0.23,0.756-0.294,1.071-0.314c0.168,0,0.294,0.021,0.399,0.084l0.062,0.062
			c0.021,0.021,0.084,0,0.105,0.021c0.063,0.021,0.042,0.041,0.105,0.104l0.147,0.064c0.146,0.146,0.293,0.377,0.357,0.65
			c0.021,0.189,0,0.377,0,0.566c0.021,0.398-0.021,0.84,0,1.155c0.063,0.399,0,0.923,0.021,1.323
			c0.021,0.504-0.021,1.049,0.126,1.448c-0.063,0.231-0.042,0.419-0.021,0.671c0,0.273,0,0.609,0.021,1.029
			c0,0.314,0.021,0.609-0.042,0.945C66.146,286.781,66.208,287.012,66.146,287.264z M83.113,278.277
			c-0.084-0.23-0.168-0.439-0.273-0.588c-0.063-0.104-0.126-0.167-0.21-0.271c-0.147-0.168-0.252-0.357-0.42-0.525
			c-0.189-0.168-0.252-0.211-0.483-0.295c-0.399-0.167-0.756-0.271-1.155-0.377c-0.168-0.062-0.357-0.042-0.546-0.062
			c-0.063,0-0.105-0.043-0.168-0.043c-0.189-0.062-0.378-0.021-0.609-0.041c-0.273,0-0.567-0.064-0.798,0
			c-0.399-0.064-0.756,0-1.155,0c-0.525-0.021-1.176-0.127-1.617-0.064c-0.063,0.064-0.105,0.043-0.168,0.105
			c0.021,0.336,0,0.735,0,1.051c0,0.188,0.063,0.336,0.063,0.566c0.021,0.23,0,0.42,0,0.609c-0.021,0.23,0,0.377,0.021,0.608
			c0.021,0.399-0.042,0.819-0.021,1.218c0,0.105,0.021,0.23,0.021,0.336c0,0.146-0.021,0.23-0.021,0.377
			c0.021,0.316,0.021,0.609,0.021,0.945c0,0.42-0.063,0.84-0.063,1.281c0,0.482,0.021,0.902,0,1.385c0,0.525-0.063,1.051,0,1.576
			c0.063,0.482,0.021,0.924,0.021,1.406c0.021,0.566,0.021,1.133,0,1.701c-0.021,0.588,0,1.111,0.084,1.553
			c0.399,0.021,0.63,0.105,1.029,0.127c0.504,0.062,0.924-0.105,1.407-0.211c0.021-0.588-0.021-1.133,0-1.721
			c0.021-0.484,0-0.82,0-1.26c0-0.84,0-1.828,0.084-2.771c0.609-0.021,1.26,0.02,1.869-0.064c0.651-0.084,1.155-0.271,1.638-0.523
			l0.63-0.483c0.231-0.188,0.42-0.337,0.567-0.588c0.084-0.169,0.147-0.378,0.231-0.608c0.147-0.441,0.189-0.945,0.252-1.471
			c0.063-0.84,0.063-1.469-0.021-2.204C83.26,278.697,83.176,278.467,83.113,278.277z M80.698,281.406
			c0,0.062-0.042,0.062-0.063,0.127c0,0.125,0,0.188-0.021,0.209l-0.189,0.273c-0.609,0.314-1.47,0.336-2.289,0.189
			c-0.168-1.26,0.042-2.332-0.021-3.591c0.777-0.063,1.68-0.147,2.268,0.167c0.252,0.42,0.462,0.924,0.441,1.408
			c-0.021,0.23-0.021,0.461-0.084,0.713C80.74,281.07,80.761,281.26,80.698,281.406z M95.335,278.678
			c0.336,0,0.672,0.041,1.029,0.041c0.399,0,0.693-0.021,1.092,0c0.189,0,0.378,0.062,0.609,0c0.063-0.188,0.105-0.461,0.105-0.629
			c0.105-0.484,0.063-0.861,0.063-1.387c-0.063-0.105-0.063-0.272-0.084-0.377c-0.021-0.147-0.042-0.232-0.042-0.273
			c-0.168-0.062-0.315-0.021-0.483-0.021c-0.588,0-1.176-0.062-1.764-0.041c-1.869,0.084-3.716-0.084-5.564,0.062
			c0,0.062-0.042,0.105-0.105,0.146c0,0.924,0,2.016-0.021,3.045h-0.021v0.062c0.021,0.021,0.021,0.021,0.021,0.043
			c0.063,0.924,0,1.952,0.021,2.771c-0.063,0.168-0.042,0.439-0.021,0.629c0,0.23,0,0.42,0.021,0.651
			c0,0.231,0.042,0.483,0.042,0.735c0,0.104-0.063,0.188,0,0.293c-0.063,0.062-0.021,0.105-0.042,0.189
			c-0.021,0.84-0.063,1.596,0,2.414c0.021,0.398-0.021,0.818,0,1.219c0.063,0.818,0,1.637,0.063,2.477
			c0.063,0.062,0.105,0.043,0.168,0.105c0.903,0,1.68,0.041,2.604-0.021c0.819-0.021,1.512-0.146,2.247-0.125l2.604,0.041
			c0.042,0.084,0.105,0.105,0.189,0.043c0.021-0.232,0.147-0.547,0.084-0.777c0.168-0.566,0.063-1.322-0.042-1.807
			c-0.063-0.041-0.126-0.02-0.21,0.043c-0.147-0.062-0.357,0.021-0.504-0.043c-0.084,0.043-0.168,0.064-0.273,0.064
			c-1.344,0.062-2.897-0.064-4.262-0.064c-0.105-1.092-0.021-2.52,0.042-3.527c0.735,0,1.386-0.062,2.037,0
			c0.021,0.021,0.021,0,0.021-0.02c0.525-0.021,1.029,0,1.554,0.02c0.147,0,0.294,0,0.441-0.02c0.168-0.84,0.105-1.764-0.042-2.436
			c-0.147-0.063-0.357-0.021-0.504-0.021c-0.063,0-0.126-0.021-0.189-0.021c-0.252,0-0.462-0.041-0.693,0.021
			c-0.756-0.084-1.806,0-2.625,0c-0.252-0.734-0.126-1.617-0.105-2.479l0.021-0.02c0.021-0.252,0.042-0.484,0.042-0.735v-0.042
			c-0.021-0.021-0.021-0.084-0.021-0.23C93.697,278.678,94.516,278.697,95.335,278.678z M112.219,288.252l-0.399-1.156
			c-0.147-0.398-0.273-0.775-0.378-1.176c-0.231-0.439-0.357-0.986-0.504-1.49c0.189-0.084,0.315-0.23,0.462-0.377
			c0.399-0.315,0.714-0.631,0.987-1.051c0.168-0.272,0.273-0.588,0.357-0.945c0.105-0.419,0.168-0.839,0.189-1.279
			c0.021-0.189,0-0.379-0.021-0.567c-0.021-0.399,0.063-0.819-0.021-1.176c-0.021-0.188-0.084-0.378-0.147-0.608
			c-0.105-0.189-0.21-0.357-0.273-0.631c-0.273-0.504-0.651-0.965-1.134-1.281c-0.063-0.062-0.105,0.064-0.126,0
			c-0.231-0.146-0.42-0.188-0.735-0.271c-1.092-0.252-2.436-0.315-3.695-0.315c-0.504,0-1.071,0-1.554,0.063
			c0.021,0.084-0.042,0.125-0.063,0.188c-0.021,0.819,0.021,1.47,0.021,2.372c0,0.693-0.021,1.365-0.042,1.932
			c-0.021,0.441,0,0.756,0,1.155c0,0.504-0.084,0.966-0.063,1.448c0.063,1.092,0,2.078,0,2.939c0,0.482,0,0.945-0.021,1.387
			c0,0.168-0.021,0.355,0,0.523c0.063,0.4,0,0.756-0.021,1.156c-0.021,0.65-0.021,1.111-0.021,1.531
			c0.357,0.148,0.651,0.189,1.05,0.252c0.567,0.064,1.071,0.064,1.491-0.104c0-0.148,0.084-0.211,0.105-0.357v-0.566
			c0.021-0.525,0-1.072-0.021-1.639c0-0.084,0.021-0.168,0.021-0.252c-0.021-1.029,0.021-2.1,0.084-3.086
			c0.252,0.062,0.672,0.062,0.861,0c0.021,0.23,0.105,0.357,0.168,0.504c0.252,0.734,0.483,1.428,0.714,2.162
			c0.147,0.441,0.231,0.861,0.378,1.281c0.231,0.672,0.42,1.238,0.609,1.848c0.252,0.021,0.483,0.105,0.798,0.168
			c0.609,0.146,1.281,0.105,1.722-0.043c0.105-0.271-0.063-0.504-0.168-0.775C112.639,289.406,112.45,288.818,112.219,288.252z
			 M105.353,276.199c-0.105,0-0.021,0,0-0.062C105.416,276.137,105.353,276.179,105.353,276.199z M110.308,280.377
			c0,0.337,0,0.609-0.063,0.945c-0.063,0.252-0.042,0.399-0.189,0.547c-0.525,0.356-1.365,0.356-2.268,0.336
			c-0.084-0.252-0.042-0.609-0.021-0.924c0.021-0.861,0-1.912,0-2.688c0.273,0,0.609,0.021,0.84,0
			c0.399-0.021,0.903-0.021,1.218,0.125c0.21,0.105,0.336,0.231,0.399,0.379C110.371,279.412,110.287,279.938,110.308,280.377z
			 M139.161,278.53c-0.147-0.588-0.441-1.028-0.756-1.448c-0.315-0.231-0.525-0.525-0.861-0.715
			c-0.147-0.084-0.378-0.125-0.462-0.273c-0.231-0.104-0.399-0.188-0.714-0.209l-0.798-0.062c-0.147,0-0.315,0-0.483,0.021
			c-0.231,0.021-0.504,0.042-0.735,0.104l-0.546,0.189c-0.441,0.168-0.882,0.398-1.197,0.672l-0.189,0.168
			c-0.105,0.189-0.273,0.294-0.42,0.482c-0.063,0.084-0.105,0.189-0.168,0.295c-0.084,0.23-0.21,0.398-0.21,0.65
			c-0.147,0.336-0.168,0.714-0.231,1.07c0,0.147-0.021,0.336,0,0.483c0,0.063,0.042,0.126,0.042,0.188
			c-0.021,0.672,0.126,1.176,0.378,1.659c0.147,0.147,0.189,0.336,0.336,0.483l0.189,0.168c0.168,0.168,0.357,0.293,0.504,0.44
			l0.21,0.167c0.084,0.105,0.168,0.148,0.273,0.232c0.147,0.146,0.21,0.314,0.441,0.377c0.063,0.147,0.21,0.231,0.315,0.295
			c0.021,0.084,0.063,0.146,0.168,0.168c0.105,0.146,0.294,0.23,0.399,0.377c0.063,0.021,0.021,0.043,0.084,0.043
			c0.483,0.566,1.176,0.881,1.596,1.469c0.231,0.482,0.483,1.176,0.252,1.785c-0.273,0.252-0.567,0.609-1.05,0.713
			c-0.399,0.084-0.756-0.125-1.092-0.23c-0.504-0.441-0.399-1.553-0.399-2.393c-0.063-0.021-0.042-0.043-0.105-0.105
			c-0.819-0.021-1.659-0.23-2.436,0.041c-0.084,0.4-0.147,0.988-0.042,1.471c-0.021,0.021-0.021,0.041-0.021,0.084
			c0.105,0.609,0.084,1.197,0.399,1.701c-0.021,0.062,0.021,0.041,0,0.104c0.231,0.232,0.294,0.547,0.546,0.693
			c-0.021,0.021,0.042,0.043,0.042,0.105c0.147,0.062,0.189,0.168,0.357,0.189c0.021,0.062,0.168,0.209,0.315,0.271
			c0.063,0.064,0.147,0.084,0.21,0.064c0.147,0.23,0.588,0.271,0.84,0.355c0.063,0.021,0.105,0,0.168,0
			c0.063,0.064,0.21,0.021,0.315,0.021c0.315,0,0.672-0.021,0.924-0.021c0.063-0.02,0.147,0.021,0.21,0.021s0.063-0.041,0.126-0.041
			c0.42-0.064,0.756-0.043,1.155-0.232c0.084,0.021,0.126-0.041,0.21-0.041c0.105-0.105,0.231-0.168,0.378-0.252
			c0.231-0.062,0.357-0.211,0.504-0.357l0.084-0.062c0.063-0.062,0.021-0.105,0.084-0.168l0.126-0.127l0.105-0.146
			c0.063-0.105,0.168-0.189,0.231-0.293c0.084-0.148,0.147-0.357,0.21-0.547c0.147-0.525,0.336-1.029,0.273-1.785
			c0-0.146,0-0.252-0.021-0.398c0-0.084-0.063-0.146-0.063-0.23c-0.021-0.105,0-0.211-0.021-0.314
			c-0.021-0.105-0.084-0.168-0.147-0.316c-0.147-0.252-0.21-0.588-0.399-0.756c-0.168-0.314-0.399-0.566-0.63-0.797
			s-0.399-0.357-0.63-0.588c-0.147-0.146-0.231-0.314-0.42-0.379c-0.273-0.271-0.567-0.523-0.924-0.755
			c-0.231-0.168-0.441-0.378-0.672-0.567c-0.084-0.084-0.168-0.125-0.231-0.209c-0.084-0.084-0.147-0.211-0.231-0.295
			c-0.252-0.314-0.504-0.608-0.651-1.008c-0.126-0.398-0.168-0.734-0.105-1.049c0.105-0.147,0.126-0.295,0.273-0.379
			c0.147-0.146,0.336-0.168,0.567-0.252c0.21-0.062,0.336-0.104,0.357-0.104c0.231-0.021,0.378,0.063,0.567,0.126
			c0.084,0,0.147-0.021,0.21,0c0.147,0.062,0.273,0.189,0.378,0.357c0.168,0.252,0.189,0.545,0.252,0.859
			c0.063,0.4-0.021,0.841,0,1.176c0.168,0.148,0.336,0.105,0.567,0.169c0.063,0,0.063,0.042,0.126,0.042
			c0.168,0.021,0.336,0,0.525,0s0.357-0.021,0.546-0.021c0.273,0,0.567,0.021,0.819-0.084c0.021-0.566,0.126-1.133,0.063-1.658
			C139.329,279.098,139.224,278.803,139.161,278.53z M153.714,276.199c-0.063-0.021-0.042-0.084-0.063-0.146
			c-0.42-0.146-0.966-0.273-1.449-0.126c-0.147-0.021-0.357,0.021-0.546,0.042c-0.21,0.021-0.399,0.062-0.546,0.125l-0.042,1.261
			c0,0.104,0.021,0.188,0.021,0.294s-0.042,0.21-0.042,0.314c0,0.609,0.021,1.092,0.021,1.659v1.428
			c-0.021,0.776-0.063,1.575-0.063,2.31c0.021,0.084-0.042,0-0.042,0.062c0.084,0,0.021,0.105,0.021,0.127
			c0,0.439,0,1.154,0.021,1.68c0.021,0.588,0.063,1.195,0,1.699c0.063,0.127,0.063,0.295,0,0.504c-0.021,0.105,0,0.232-0.063,0.316
			c-0.084,0.23-0.483,0.439-0.735,0.504c-0.063,0.02-0.126,0-0.189,0.02c-0.063,0.021-0.126,0.064-0.189,0.064
			c-0.231,0.02-0.42-0.043-0.567-0.064c-0.399-0.084-0.651-0.293-0.798-0.65c-0.147-0.336-0.084-0.672-0.084-1.07
			c-0.021-0.566-0.063-1.219-0.042-1.869l0.063-2.582c0-0.902-0.021-1.742-0.021-2.478c0.021-0.44,0-0.86,0-1.28
			c-0.021-0.399,0.021-0.819-0.042-1.176c0.063-0.064-0.042-0.168,0.042-0.231c-0.105-0.21,0.105-0.714-0.084-0.903
			c-0.504-0.021-1.008-0.188-1.512-0.125l-0.966,0.168c0,0.084-0.063,0.084-0.084,0.146c0.063,0.482,0.021,1.008,0,1.533
			c0,1.092,0.063,2.204,0,3.296c-0.063,1.26,0,2.099,0,3.128c0,0.146-0.042,0.336,0.042,0.357c-0.147,0.252,0,0.713,0,1.049
			c-0.021,0.232-0.063,0.463-0.063,0.715c0,0.504,0.021,1.07,0.084,1.553c0.021,0.252,0.105,0.484,0.168,0.736
			c0.168,0.482,0.504,0.775,0.777,1.176c0.231,0.146,0.294,0.293,0.483,0.439c0.147,0.105,0.336,0.168,0.504,0.273
			c0.168,0.084,0.336,0.168,0.504,0.23c0.231,0.064,0.441,0.127,0.756,0.148c0.651,0.084,1.302,0.041,1.953-0.105l0.378-0.062
			l0.273-0.168l0.252-0.105c0.084-0.062,0.147-0.084,0.21-0.146c0.084-0.064,0.189-0.064,0.252-0.127
			c0.147-0.105,0.252-0.23,0.399-0.377c0.231-0.189,0.315-0.336,0.462-0.568l0.126-0.168c0.021-0.062,0-0.104,0.021-0.125
			c0-0.062,0.042-0.062,0.063-0.127c0.084-0.271,0.105-0.629,0.168-0.859c0.063-0.148,0.084-0.252,0.105-0.316
			c0.021-0.23-0.021-0.607-0.042-0.859c-0.021-0.568,0.105-1.197,0.021-1.701c0.084-0.734,0.021-1.428,0.021-2.1
			c0-0.777,0.021-1.512,0.021-2.33c0-0.42,0-0.777-0.021-1.176C153.588,278.32,153.777,277.375,153.714,276.199z M145.798,276.179
			c0-0.021,0.084-0.042,0.084,0.021C145.84,276.199,145.819,276.199,145.798,276.179z M168.666,285.438l-0.042-0.398
			c-0.063-0.23-0.168-0.379-0.252-0.566c-0.063-0.148-0.105-0.273-0.168-0.379c-0.105-0.188-0.294-0.314-0.462-0.461l-0.504-0.441
			c0.399-0.378,0.692-0.861,0.882-1.47c0.231-0.651,0.335-1.261,0.231-1.995c-0.063-0.441-0.084-0.861-0.189-1.26l-0.189-0.44
			c-0.146-0.337-0.251-0.504-0.44-0.776c-0.063-0.105-0.147-0.232-0.252-0.336c-0.168-0.147-0.378-0.252-0.609-0.4
			c-0.651-0.355-1.449-0.545-2.436-0.523c-0.398,0-0.755,0.062-1.155,0.041c-0.86,0-1.973-0.041-2.583,0.021
			c0.105,0.902,0.021,1.806,0.021,2.729c0,0.924,0.021,1.869,0.021,2.793c0,1.428,0,2.73-0.062,3.99
			c-0.021,0.482,0.021,0.881,0.021,1.322c0,0.273,0.021,0.525,0.021,0.777c-0.063,1.07,0.042,1.994-0.021,2.98
			c0.105,0.021,0.168,0.084,0.252,0.105c0.188,0.062,0.462,0,0.713,0c0.441,0.021,0.903,0.041,1.344,0.021
			c0.23,0,0.419-0.021,0.609-0.021c0.441-0.062,1.134,0,1.659,0c0.293,0,0.567-0.021,0.819-0.062
			c0.231-0.064,0.462-0.043,0.63-0.189c0.231-0.062,0.44-0.084,0.525-0.273c0.231-0.189,0.546-0.377,0.735-0.629
			c0.23-0.273,0.357-0.652,0.504-0.988c0.188-0.398,0.356-0.902,0.356-1.301c0.063-0.105,0.042-0.23,0.063-0.336l0.063-0.357
			c0-0.252-0.063-0.482-0.063-0.734L168.666,285.438z M163.123,280c0.021-0.084,0.021-0.168,0-0.23c0.062-0.42-0.021-0.777,0-1.219
			c0.861-0.062,2.016-0.252,2.457,0.314c0.021,0.253,0.126,0.484,0.146,0.736c0.021,0.168,0.021,0.336,0.021,0.566
			c0,0.146-0.021,0.23-0.021,0.378c0,0.399,0.021,0.798-0.042,1.112c-0.252,0.168-0.504,0.42-0.903,0.504
			c-0.504,0.084-1.134,0-1.658,0C163.186,281.344,163.186,280.818,163.123,280z M166.021,287.559
			c-0.021,0.084-0.168,0.293-0.231,0.377c-0.167,0.232-0.398,0.295-0.755,0.357c-0.588,0.105-1.176,0.062-1.848,0
			c0.021-1.176-0.062-2.141,0-3.59c0.567-0.084,0.798-0.021,1.386-0.021c0.104,0,0.209-0.021,0.315-0.021
			c0.252-0.02,0.756,0.127,0.902,0.273c0.147,0.146,0.294,0.525,0.294,0.84v0.336c0,0.314-0.021,0.672-0.021,0.945
			C166.083,287.223,166.125,287.391,166.021,287.559z M182.862,278.53c-0.147-0.588-0.441-1.028-0.756-1.448
			c-0.315-0.231-0.525-0.525-0.861-0.715c-0.147-0.084-0.378-0.125-0.462-0.273c-0.231-0.104-0.399-0.188-0.714-0.209l-0.798-0.062
			c-0.147,0-0.315,0-0.483,0.021c-0.231,0.021-0.504,0.042-0.735,0.104l-0.546,0.189c-0.441,0.168-0.882,0.398-1.197,0.672
			l-0.189,0.168c-0.105,0.189-0.273,0.294-0.42,0.482c-0.063,0.084-0.105,0.189-0.168,0.295c-0.084,0.23-0.21,0.398-0.21,0.65
			c-0.147,0.336-0.168,0.714-0.231,1.07c0,0.147-0.021,0.336,0,0.483c0,0.063,0.042,0.126,0.042,0.188
			c-0.021,0.672,0.126,1.176,0.378,1.659c0.147,0.147,0.189,0.336,0.336,0.483l0.189,0.168c0.168,0.168,0.357,0.293,0.504,0.44
			l0.21,0.167c0.084,0.105,0.168,0.148,0.273,0.232c0.147,0.146,0.21,0.314,0.441,0.377c0.063,0.147,0.21,0.231,0.315,0.295
			c0.021,0.084,0.063,0.146,0.168,0.168c0.105,0.146,0.294,0.23,0.399,0.377c0.063,0.021,0.021,0.043,0.084,0.043
			c0.483,0.566,1.176,0.881,1.596,1.469c0.231,0.482,0.483,1.176,0.252,1.785c-0.273,0.252-0.567,0.609-1.05,0.713
			c-0.399,0.084-0.756-0.125-1.092-0.23c-0.504-0.441-0.399-1.553-0.399-2.393c-0.063-0.021-0.042-0.043-0.105-0.105
			c-0.819-0.021-1.659-0.23-2.436,0.041c-0.084,0.4-0.147,0.988-0.042,1.471c-0.021,0.021-0.021,0.041-0.021,0.084
			c0.105,0.609,0.084,1.197,0.399,1.701c-0.021,0.062,0.021,0.041,0,0.104c0.231,0.232,0.294,0.547,0.546,0.693
			c-0.021,0.021,0.042,0.043,0.042,0.105c0.147,0.062,0.189,0.168,0.357,0.189c0.021,0.062,0.168,0.209,0.315,0.271
			c0.063,0.064,0.147,0.084,0.21,0.064c0.147,0.23,0.588,0.271,0.84,0.355c0.063,0.021,0.105,0,0.168,0
			c0.063,0.064,0.21,0.021,0.315,0.021c0.315,0,0.672-0.021,0.924-0.021c0.063-0.02,0.147,0.021,0.21,0.021s0.063-0.041,0.126-0.041
			c0.42-0.064,0.756-0.043,1.155-0.232c0.084,0.021,0.126-0.041,0.21-0.041c0.105-0.105,0.231-0.168,0.378-0.252
			c0.231-0.062,0.357-0.211,0.504-0.357l0.084-0.062c0.063-0.062,0.021-0.105,0.084-0.168l0.126-0.127l0.105-0.146
			c0.063-0.105,0.168-0.189,0.231-0.293c0.084-0.148,0.147-0.357,0.21-0.547c0.147-0.525,0.336-1.029,0.273-1.785
			c0-0.146,0-0.252-0.021-0.398c0-0.084-0.063-0.146-0.063-0.23c-0.021-0.105,0-0.211-0.021-0.314
			c-0.021-0.105-0.084-0.168-0.147-0.316c-0.147-0.252-0.21-0.588-0.399-0.756c-0.168-0.314-0.399-0.566-0.63-0.797
			s-0.399-0.357-0.63-0.588c-0.147-0.146-0.231-0.314-0.42-0.379c-0.273-0.271-0.567-0.523-0.924-0.755
			c-0.231-0.168-0.441-0.378-0.672-0.567c-0.084-0.084-0.168-0.125-0.231-0.209c-0.084-0.084-0.147-0.211-0.231-0.295
			c-0.252-0.314-0.504-0.608-0.651-1.008c-0.126-0.398-0.168-0.734-0.105-1.049c0.105-0.147,0.126-0.295,0.273-0.379
			c0.147-0.146,0.336-0.168,0.567-0.252c0.21-0.062,0.336-0.104,0.357-0.104c0.231-0.021,0.378,0.063,0.567,0.126
			c0.084,0,0.147-0.021,0.21,0c0.147,0.062,0.273,0.189,0.378,0.357c0.168,0.252,0.189,0.545,0.252,0.859
			c0.063,0.4-0.021,0.841,0,1.176c0.168,0.148,0.336,0.105,0.567,0.169c0.063,0,0.063,0.042,0.126,0.042
			c0.168,0.021,0.336,0,0.525,0s0.357-0.021,0.546-0.021c0.273,0,0.567,0.021,0.819-0.084c0.021-0.566,0.126-1.133,0.063-1.658
			C183.03,279.098,182.925,278.803,182.862,278.53z M197.394,285.752c-0.084-0.084-0.189-0.062-0.336-0.062
			c-0.168-0.021-0.357-0.084-0.525-0.105c-0.651-0.062-1.218,0-1.659,0.211c0,0-0.021,0.062-0.042,0.209
			c0.147,0.525-0.105,1.051-0.042,1.449c-0.084,0.084-0.042,0.211-0.105,0.295c-0.105,0.168-0.378,0.271-0.546,0.355
			c-0.105,0.064-0.21,0.168-0.294,0.189c-0.336,0.146-0.651,0.021-1.008-0.041c-0.336-0.168-0.567-0.357-0.651-0.777
			c-0.105-0.482-0.063-0.902-0.063-1.387c0-0.439-0.021-0.881-0.042-1.363c-0.021-1.176,0.042-2.352,0.042-3.611
			c0-0.82-0.21-1.596,0.126-2.205c0.147-0.084,0.21-0.23,0.357-0.314c0.147-0.063,0.315-0.147,0.504-0.168
			c0.525-0.105,1.26,0.104,1.449,0.439c0.063,0.064,0.042,0.169,0.105,0.253c0.189,0.483,0.105,1.134,0.084,1.743
			c0.105,0.104,0.252,0.104,0.483,0.168c0.315,0.062,0.462,0.041,0.693,0.041c0.399,0,0.672-0.062,0.987-0.084
			c0.168,0,0.273,0,0.378-0.062c0.063-1.176,0.021-2.352-0.378-3.17c-0.147-0.211-0.294-0.42-0.462-0.609l-0.147-0.189l-0.168-0.188
			c-0.063-0.063-0.084-0.021-0.147-0.085c-0.063-0.062-0.063-0.104-0.084-0.125c-0.147-0.105-0.294-0.168-0.399-0.314
			c-0.189-0.021-0.357-0.148-0.546-0.211c-0.231-0.062-0.462-0.021-0.693-0.084c-0.483-0.062-0.966-0.125-1.491-0.062
			c-0.147,0-0.273,0-0.42,0.021c-0.315,0.062-0.525,0.188-0.756,0.293l-0.714,0.398c-0.315,0.169-0.63,0.316-0.693,0.631
			c-0.231,0.252-0.336,0.588-0.441,0.986c-0.084,0.273-0.147,0.588-0.21,0.861s-0.021,0.588-0.042,0.902
			c-0.063,0.525-0.042,1.135-0.042,1.617c0,0.146,0.021,0.23,0.021,0.377c0,0.064-0.042,0.084-0.042,0.148v0.168
			c0,0.146-0.021,0.23-0.021,0.377c-0.021,0.504,0.084,1.071,0.105,1.639c0,0.355-0.105,0.965-0.042,1.322
			c0.021,0.23,0,0.461,0,0.693c0,0.23-0.021,0.439,0,0.672c0,0.23,0.042,0.439,0.042,0.672c0.021,0.23,0,0.42,0.063,0.588
			c0.021,0.104,0.063,0.188,0.126,0.293c0.021,0.105,0.042,0.23,0.105,0.314c0.105,0.189,0.252,0.336,0.315,0.568
			c0.231,0.23,0.399,0.42,0.588,0.691c0.168,0.064,0.21,0.148,0.315,0.232c0.252,0.23,0.588,0.336,0.903,0.42
			c0.189,0.062,0.378,0.041,0.546,0.062c0.357,0.062,0.714,0.021,1.05,0.084c0.168-0.062,0.315-0.021,0.546-0.043
			c0.315-0.062,0.651-0.146,0.882-0.209c0.315-0.084,0.546-0.211,0.777-0.379c0.399-0.314,0.798-0.482,1.029-0.902l0.357-0.65
			c0.147-0.314,0.21-0.65,0.231-1.008c0-0.189,0.063-0.379,0.063-0.566c0-0.189-0.021-0.4-0.021-0.588
			C197.394,286.256,197.415,286.004,197.394,285.752z M211.358,288.252l-0.399-1.156c-0.147-0.398-0.273-0.775-0.378-1.176
			c-0.231-0.439-0.357-0.986-0.504-1.49c0.189-0.084,0.315-0.23,0.462-0.377c0.399-0.315,0.714-0.631,0.987-1.051
			c0.168-0.272,0.273-0.588,0.357-0.945c0.105-0.419,0.168-0.839,0.189-1.279c0.021-0.189,0-0.379-0.021-0.567
			c-0.021-0.399,0.063-0.819-0.021-1.176c-0.021-0.188-0.084-0.378-0.147-0.608c-0.105-0.189-0.21-0.357-0.273-0.631
			c-0.273-0.504-0.651-0.965-1.134-1.281c-0.063-0.062-0.105,0.064-0.126,0c-0.231-0.146-0.42-0.188-0.735-0.271
			c-1.092-0.252-2.436-0.315-3.695-0.315c-0.504,0-1.071,0-1.554,0.063c0.021,0.084-0.042,0.125-0.063,0.188
			c-0.021,0.819,0.021,1.47,0.021,2.372c0,0.693-0.021,1.365-0.042,1.932c-0.021,0.441,0,0.756,0,1.155
			c0,0.504-0.084,0.966-0.063,1.448c0.063,1.092,0,2.078,0,2.939c0,0.482,0,0.945-0.021,1.387c0,0.168-0.021,0.355,0,0.523
			c0.063,0.4,0,0.756-0.021,1.156c-0.021,0.65-0.021,1.111-0.021,1.531c0.357,0.148,0.651,0.189,1.05,0.252
			c0.567,0.064,1.071,0.064,1.491-0.104c0-0.148,0.084-0.211,0.105-0.357v-0.566c0.021-0.525,0-1.072-0.021-1.639
			c0-0.084,0.021-0.168,0.021-0.252c-0.021-1.029,0.021-2.1,0.084-3.086c0.252,0.062,0.672,0.062,0.861,0
			c0.021,0.23,0.105,0.357,0.168,0.504c0.252,0.734,0.483,1.428,0.714,2.162c0.147,0.441,0.231,0.861,0.378,1.281
			c0.231,0.672,0.42,1.238,0.609,1.848c0.252,0.021,0.483,0.105,0.798,0.168c0.609,0.146,1.281,0.105,1.722-0.043
			c0.105-0.271-0.063-0.504-0.168-0.775C211.778,289.406,211.589,288.818,211.358,288.252z M204.493,276.199
			c-0.105,0-0.021,0,0-0.062C204.556,276.137,204.493,276.179,204.493,276.199z M209.448,280.377c0,0.337,0,0.609-0.063,0.945
			c-0.063,0.252-0.042,0.399-0.189,0.547c-0.525,0.356-1.365,0.356-2.268,0.336c-0.084-0.252-0.042-0.609-0.021-0.924
			c0.021-0.861,0-1.912,0-2.688c0.273,0,0.609,0.021,0.84,0c0.399-0.021,0.903-0.021,1.218,0.125
			c0.21,0.105,0.336,0.231,0.399,0.379C209.511,279.412,209.427,279.938,209.448,280.377z M221.691,287.223
			c-0.063-0.986,0.042-1.975,0.042-2.877c0-0.146-0.021-0.461,0-0.693c0-0.084,0.021-0.146,0.042-0.23
			c0-0.188-0.021-0.398-0.021-0.629v-0.273c0-0.105,0.021-0.23,0-0.336c0-0.062-0.042-0.042-0.063-0.105
			c-0.063-0.23,0-0.545,0-0.818c0-0.818,0-1.574-0.021-2.31c0-1.008,0.042-1.952-0.042-2.876c-0.189-0.105-0.462-0.084-0.735-0.084
			c-0.651,0-1.197,0.02-1.701,0.084c-0.021,0.062-0.021,0.125-0.105,0.125c0.021,1.113,0,2.311,0,3.654c0.021,1.008,0,2.288,0,3.548
			c0.021,1.259,0.084,2.562,0.063,3.653c-0.021,1.176-0.063,2.393,0.021,3.736c0.147,0.148,0.378,0.105,0.609,0.127
			c0.483,0.062,0.903,0.041,1.323-0.021c0.252-0.021,0.483,0.021,0.672-0.125c0.042-0.883,0.042-1.764,0-2.668L221.691,287.223z
			 M236.558,278.277c-0.084-0.23-0.168-0.439-0.273-0.588c-0.063-0.104-0.126-0.167-0.21-0.271c-0.147-0.168-0.252-0.357-0.42-0.525
			c-0.189-0.168-0.252-0.211-0.483-0.295c-0.399-0.167-0.756-0.271-1.155-0.377c-0.168-0.062-0.357-0.042-0.546-0.062
			c-0.063,0-0.105-0.043-0.168-0.043c-0.189-0.062-0.378-0.021-0.609-0.041c-0.273,0-0.567-0.064-0.798,0
			c-0.399-0.064-0.756,0-1.155,0c-0.525-0.021-1.176-0.127-1.617-0.064c-0.063,0.064-0.105,0.043-0.168,0.105
			c0.021,0.336,0,0.735,0,1.051c0,0.188,0.063,0.336,0.063,0.566c0.021,0.23,0,0.42,0,0.609c-0.021,0.23,0,0.377,0.021,0.608
			c0.021,0.399-0.042,0.819-0.021,1.218c0,0.105,0.021,0.23,0.021,0.336c0,0.146-0.021,0.23-0.021,0.377
			c0.021,0.316,0.021,0.609,0.021,0.945c0,0.42-0.063,0.84-0.063,1.281c0,0.482,0.021,0.902,0,1.385c0,0.525-0.063,1.051,0,1.576
			c0.063,0.482,0.021,0.924,0.021,1.406c0.021,0.566,0.021,1.133,0,1.701c-0.021,0.588,0,1.111,0.084,1.553
			c0.399,0.021,0.63,0.105,1.029,0.127c0.504,0.062,0.924-0.105,1.407-0.211c0.021-0.588-0.021-1.133,0-1.721
			c0.021-0.484,0-0.82,0-1.26c0-0.84,0-1.828,0.084-2.771c0.609-0.021,1.26,0.02,1.869-0.064c0.651-0.084,1.155-0.271,1.638-0.523
			l0.63-0.483c0.231-0.188,0.42-0.337,0.567-0.588c0.084-0.169,0.147-0.378,0.231-0.608c0.147-0.441,0.189-0.945,0.252-1.471
			c0.063-0.84,0.063-1.469-0.021-2.204C236.705,278.697,236.621,278.467,236.558,278.277z M234.144,281.406
			c0,0.062-0.042,0.062-0.063,0.127c0,0.125,0,0.188-0.021,0.209l-0.189,0.273c-0.609,0.314-1.47,0.336-2.289,0.189
			c-0.168-1.26,0.042-2.332-0.021-3.591c0.777-0.063,1.68-0.147,2.268,0.167c0.252,0.42,0.462,0.924,0.441,1.408
			c-0.021,0.23-0.021,0.461-0.084,0.713C234.186,281.07,234.207,281.26,234.144,281.406z M251.447,275.969
			c-0.063-0.021-0.126,0.062-0.189,0.062c-0.483,0.021-0.987,0.043-1.554-0.021c-1.533-0.062-3.233,0-4.745-0.02
			c-0.567,0-1.218-0.105-1.701-0.043c-0.252,0.693-0.357,1.723-0.126,2.457c0.189,0.084,0.42,0.084,0.651,0.084
			s0.483,0.042,0.714,0.042c0.567,0,1.092-0.021,1.617,0c0.063,0.399,0,0.567-0.021,0.966c-0.063,0.65,0.021,1.176-0.042,1.826
			c-0.063,0.819,0.021,1.639,0.021,2.457c0,0.84,0.021,1.637,0.021,2.457c0,0.775-0.084,1.447-0.084,2.184
			c0,0.818,0.063,1.512,0,2.268c0.231,0.146,0.483,0.168,0.735,0.188c0.273,0.021,0.588,0.105,0.84,0.043
			c0.021,0,0.042,0.021,0.063,0.021c0.315,0,0.609-0.105,0.924-0.127c0-0.777,0.084-1.428,0.084-2.205c0-0.398-0.021-0.797,0-1.195
			c0-0.4-0.021-0.756,0-1.113c0-0.42,0.021-0.84,0.021-1.26s0.063-0.861,0-1.26c0-0.062-0.042-0.105-0.042-0.168
			c-0.021-0.252,0.042-0.525-0.042-0.777c0.021-0.273,0.063-0.65,0.063-1.049c0-0.252-0.042-0.504-0.042-0.735
			c0-0.315,0.042-0.63,0.042-0.944c-0.021-0.567-0.084-1.051,0.021-1.617c0.105-0.062,0.105,0,0.21,0.021h0.294
			c0.315,0.021,0.588,0,0.861,0c0.399,0,0.798-0.063,1.134,0c0.105,0,0.189,0.084,0.294,0.021c0.147-0.315,0.273-0.608,0.294-1.05
			c0-0.252-0.021-0.546-0.084-0.818C251.678,276.557,251.552,275.969,251.447,275.969z M261.023,287.223
			c-0.062-0.986,0.042-1.975,0.042-2.877c0-0.146-0.021-0.461,0-0.693c0-0.084,0.021-0.146,0.042-0.23
			c0-0.188-0.021-0.398-0.021-0.629v-0.273c0-0.105,0.021-0.23,0-0.336c0-0.062-0.042-0.042-0.063-0.105
			c-0.062-0.23,0-0.545,0-0.818c0-0.818,0-1.574-0.021-2.31c0-1.008,0.042-1.952-0.042-2.876c-0.189-0.105-0.462-0.084-0.735-0.084
			c-0.65,0-1.196,0.02-1.7,0.084c-0.021,0.062-0.021,0.125-0.105,0.125c0.021,1.113,0,2.311,0,3.654c0.021,1.008,0,2.288,0,3.548
			c0.021,1.259,0.084,2.562,0.063,3.653c-0.021,1.176-0.063,2.393,0.021,3.736c0.147,0.148,0.378,0.105,0.609,0.127
			c0.482,0.062,0.902,0.041,1.322-0.021c0.252-0.021,0.483,0.021,0.672-0.125c0.042-0.883,0.042-1.764,0-2.668L261.023,287.223z
			 M275.849,284.346c-0.063-0.357,0-0.713-0.021-1.112c0-0.315,0.021-0.651,0-0.966l-0.042-2.184c0-0.609,0-1.281-0.23-1.807
			c-0.231-0.523-0.42-1.027-0.819-1.469c-0.335-0.168-0.63-0.462-1.05-0.609l-0.146-0.041c-0.252-0.064-0.504-0.252-0.756-0.315
			c-0.735-0.147-1.449,0.021-2.1,0.126c-0.336,0.23-0.756,0.314-1.113,0.504c-0.356,0.189-0.588,0.462-0.84,0.734
			c-0.104,0.105-0.23,0.168-0.314,0.315c-0.147,0.147-0.21,0.315-0.273,0.546c-0.021,0.062-0.084,0.125-0.084,0.189
			c-0.062,0.23-0.021,0.42-0.041,0.607c-0.021,0.652-0.043,1.135-0.043,1.744v1.406c0,0.945-0.041,1.89-0.021,2.793
			c0,0.062,0.021,0.125,0.021,0.209c0,0.189-0.021,0.588-0.021,0.777c-0.021,0.021-0.021,0.105-0.021,0.273
			c-0.063,0.482,0.084,0.881,0.084,1.322c0.021,0.398,0.084,0.693,0.168,1.008c0.104,0.314,0.252,0.588,0.398,0.818l0.272,0.379
			c0.231,0.168,0.421,0.398,0.651,0.588l0.378,0.252c0.126,0.062,0.252,0.125,0.399,0.23l0.461,0.209
			c0.189,0.064,0.315,0.043,0.547,0.064c0.167,0,0.314,0.062,0.482,0.084c0.398,0.02,0.756-0.105,1.154-0.189
			c0.357-0.084,0.693-0.211,0.987-0.379c0.147-0.062,0.272-0.146,0.42-0.23l0.188-0.168c0.231-0.168,0.399-0.252,0.567-0.482
			s0.252-0.336,0.399-0.566c0.104-0.232,0.252-0.525,0.188-0.84c0.272-0.988,0.21-2.352,0.21-3.527c0-0.064,0.021-0.084,0.021-0.148
			C275.911,284.43,275.869,284.408,275.849,284.346z M273.266,287.264c0,0.021-0.042,0.084-0.062,0.148l-0.042,0.168
			c0,0.02-0.042,0.02-0.063,0.084c-0.021,0.02,0,0.084-0.021,0.104c-0.021,0.064-0.084,0.043-0.104,0.105
			c-0.357,0.441-1.029,0.609-1.785,0.42l-0.272-0.23c-0.021-0.021,0-0.043-0.021-0.105c-0.315-0.398-0.357-1.029-0.336-1.617
			c0.063-0.607-0.021-1.238-0.042-1.826c-0.063-1.596,0.042-3.023,0.042-4.641c0-0.314-0.042-0.482,0.063-0.734
			c0.062-0.104,0.23-0.336,0.314-0.398c0.273-0.23,0.756-0.294,1.07-0.314c0.168,0,0.295,0.021,0.399,0.084l0.063,0.062
			c0.021,0.021,0.083,0,0.104,0.021c0.062,0.021,0.042,0.041,0.104,0.104l0.147,0.064c0.147,0.146,0.294,0.377,0.356,0.65
			c0.021,0.189,0,0.377,0,0.566c0.021,0.398-0.021,0.84,0,1.155c0.063,0.399,0,0.923,0.021,1.323
			c0.021,0.504-0.021,1.049,0.126,1.448c-0.063,0.231-0.042,0.419-0.021,0.671c0,0.273,0,0.609,0.021,1.029
			c0,0.314,0.021,0.609-0.042,0.945C273.266,286.781,273.329,287.012,273.266,287.264z M291.305,277.522
			c0-0.483,0-0.925-0.021-1.407c-0.776-0.23-1.638-0.209-2.498-0.062c-0.021,0.756,0,1.365,0,2.184v0.566
			c0.021,0.945,0,1.891,0,2.814c0.021,0.482,0.042,0.902,0.021,1.385l-0.084,1.322c-0.566-1.07-1.028-2.183-1.47-3.359
			c-0.23-0.566-0.482-1.111-0.734-1.68c-0.315-0.65-0.483-1.406-0.882-1.994c-0.147-0.42-0.273-0.86-0.504-1.217
			c-0.063-0.021-0.084,0.02-0.105-0.043c-0.734-0.104-1.616-0.021-2.288,0.084c-0.084,1.785-0.021,3.381,0,4.977
			c0,0.734-0.063,1.449-0.042,2.121c0.021,0.23-0.021,0.482-0.021,0.734v1.617c-0.021,0.566,0.042,1.008,0.021,1.531
			c-0.021,0.316-0.063,0.588-0.042,0.904c0,0.23,0.042,0.482,0.062,0.756c0.021,0.271,0,0.566-0.021,0.84
			c0,0.146-0.021,0.355,0.042,0.504c-0.084,0.104-0.063,0.439,0,0.588c0.818,0.146,1.658,0.252,2.394,0
			c0.021-0.084,0.062-0.043,0.146-0.064c0-0.523,0-1.07,0.063-1.596c0-0.168,0.042-0.355,0.042-0.545
			c0-0.252-0.042-0.504-0.042-0.777c-0.021-0.252-0.021-0.504-0.021-0.756c-0.021-1.449-0.062-2.812-0.042-4.324
			c0.021,0.062,0.042,0.188,0.105,0.209c0.021,0.189,0.126,0.336,0.188,0.504c0.399,0.902,0.84,1.723,1.155,2.582l0.42,1.072
			c0.084,0.398,0.252,0.691,0.398,1.027c0.273,0.756,0.609,1.387,0.861,2.121c0.104,0.168,0.188,0.357,0.252,0.566
			c0.252,0,0.524,0.043,0.798,0.064c0.588,0.062,1.196-0.021,1.806-0.021c-0.021-0.084,0.062-0.084,0.062-0.146
			c-0.062-0.693,0.021-1.387,0-2.121c-0.062-0.734-0.062-1.49-0.084-2.227c0-0.398,0.021-0.775,0-1.133
			c-0.062-1.428,0.084-3.129,0.021-4.725c0-0.482,0.042-0.965,0.062-1.448C291.325,278.467,291.305,278.006,291.305,277.522z
			 M305.857,278.53c-0.147-0.588-0.441-1.028-0.756-1.448c-0.315-0.231-0.525-0.525-0.861-0.715
			c-0.146-0.084-0.377-0.125-0.461-0.273c-0.231-0.104-0.399-0.188-0.715-0.209l-0.797-0.062c-0.147,0-0.315,0-0.483,0.021
			c-0.231,0.021-0.504,0.042-0.735,0.104l-0.546,0.189c-0.44,0.168-0.882,0.398-1.196,0.672l-0.189,0.168
			c-0.104,0.189-0.272,0.294-0.42,0.482c-0.062,0.084-0.104,0.189-0.168,0.295c-0.084,0.23-0.21,0.398-0.21,0.65
			c-0.146,0.336-0.168,0.714-0.23,1.07c0,0.147-0.021,0.336,0,0.483c0,0.063,0.042,0.126,0.042,0.188
			c-0.021,0.672,0.126,1.176,0.378,1.659c0.146,0.147,0.188,0.336,0.336,0.483l0.188,0.168c0.168,0.168,0.357,0.293,0.504,0.44
			l0.21,0.167c0.084,0.105,0.168,0.148,0.273,0.232c0.146,0.146,0.21,0.314,0.44,0.377c0.063,0.147,0.211,0.231,0.315,0.295
			c0.021,0.084,0.062,0.146,0.168,0.168c0.104,0.146,0.294,0.23,0.398,0.377c0.063,0.021,0.021,0.043,0.084,0.043
			c0.483,0.566,1.176,0.881,1.596,1.469c0.231,0.482,0.483,1.176,0.253,1.785c-0.273,0.252-0.567,0.609-1.051,0.713
			c-0.398,0.084-0.756-0.125-1.092-0.23c-0.504-0.441-0.398-1.553-0.398-2.393c-0.062-0.021-0.042-0.043-0.105-0.105
			c-0.818-0.021-1.658-0.23-2.436,0.041c-0.084,0.4-0.146,0.988-0.042,1.471c-0.021,0.021-0.021,0.041-0.021,0.084
			c0.104,0.609,0.084,1.197,0.398,1.701c-0.021,0.062,0.021,0.041,0,0.104c0.231,0.232,0.294,0.547,0.547,0.693
			c-0.021,0.021,0.041,0.043,0.041,0.105c0.147,0.062,0.189,0.168,0.357,0.189c0.021,0.062,0.168,0.209,0.314,0.271
			c0.063,0.064,0.147,0.084,0.211,0.064c0.146,0.23,0.588,0.271,0.839,0.355c0.063,0.021,0.105,0,0.168,0
			c0.063,0.064,0.21,0.021,0.315,0.021c0.314,0,0.672-0.021,0.924-0.021c0.062-0.02,0.146,0.021,0.21,0.021
			c0.062,0,0.062-0.041,0.126-0.041c0.42-0.064,0.756-0.043,1.154-0.232c0.084,0.021,0.127-0.041,0.21-0.041
			c0.105-0.105,0.231-0.168,0.378-0.252c0.231-0.062,0.357-0.211,0.504-0.357l0.084-0.062c0.063-0.062,0.021-0.105,0.084-0.168
			l0.126-0.127l0.105-0.146c0.062-0.105,0.168-0.189,0.231-0.293c0.083-0.148,0.146-0.357,0.209-0.547
			c0.147-0.525,0.336-1.029,0.273-1.785c0-0.146,0-0.252-0.021-0.398c0-0.084-0.062-0.146-0.062-0.23
			c-0.021-0.105,0-0.211-0.021-0.314c-0.021-0.105-0.084-0.168-0.146-0.316c-0.147-0.252-0.21-0.588-0.399-0.756
			c-0.168-0.314-0.398-0.566-0.63-0.797c-0.23-0.23-0.398-0.357-0.63-0.588c-0.146-0.146-0.23-0.314-0.42-0.379
			c-0.272-0.271-0.566-0.523-0.923-0.755c-0.231-0.168-0.441-0.378-0.673-0.567c-0.084-0.084-0.168-0.125-0.23-0.209
			c-0.084-0.084-0.147-0.211-0.231-0.295c-0.252-0.314-0.504-0.608-0.65-1.008c-0.126-0.398-0.168-0.734-0.105-1.049
			c0.105-0.147,0.126-0.295,0.273-0.379c0.146-0.146,0.336-0.168,0.566-0.252c0.21-0.062,0.336-0.104,0.357-0.104
			c0.23-0.021,0.378,0.063,0.566,0.126c0.084,0,0.147-0.021,0.211,0c0.146,0.062,0.272,0.189,0.377,0.357
			c0.168,0.252,0.189,0.545,0.252,0.859c0.063,0.4-0.021,0.841,0,1.176c0.168,0.148,0.336,0.105,0.567,0.169
			c0.062,0,0.062,0.042,0.126,0.042c0.168,0.021,0.336,0,0.524,0c0.189,0,0.357-0.021,0.546-0.021c0.273,0,0.567,0.021,0.819-0.084
			c0.021-0.566,0.126-1.133,0.063-1.658C306.025,279.098,305.92,278.803,305.857,278.53z M332.653,276.031
			c-0.189-0.062-0.462-0.062-0.714-0.062c-1.176,0-2.352-0.021-3.359,0.041c-0.231-0.062-0.441-0.041-0.63-0.02h-0.841
			c-0.734-0.021-1.427-0.021-2.12-0.021c0.021,0.084-0.084,0.021-0.104,0.084c0,1.07,0.041,2.268-0.021,3.254
			c-0.062,0.672,0.021,1.407,0.042,2.143c0.021,0.756-0.021,1.512,0,2.246c0,0.42,0,0.797,0.021,1.217
			c0.021,0.736-0.041,1.408-0.062,2.143c0,0.756-0.104,1.406-0.021,2.1c0.063,0.504-0.062,0.986,0,1.469
			c0.063,0.021,0.105,0.064,0.127,0.127c0.776,0.23,1.722,0.146,2.456,0c0-0.021,0.021-0.084,0.042-0.189
			c0-0.42,0.042-0.797,0.062-1.154c0.021-0.441,0-0.883-0.021-1.365c-0.021-0.23-0.021-0.482-0.021-0.734
			c-0.021-0.441-0.021-0.902-0.021-1.344c0-0.482-0.021-0.924,0.084-1.406c1.449-0.021,2.604-0.084,3.947,0.02
			c0.021-0.252,0.042-0.545,0.105-0.818c0.084-0.524,0.084-1.049-0.084-1.532c-0.147-0.147-0.336-0.063-0.609-0.063
			c-0.882,0.063-2.414-0.105-3.381-0.041c0.084-1.176-0.167-2.352-0.021-3.527c0.651-0.063,1.302-0.043,1.953-0.021
			c0.23,0,0.398-0.021,0.63-0.021c0.902-0.021,1.721,0.063,2.582,0.063c0-0.147,0.084-0.378,0.063-0.608
			c0-0.063-0.042-0.105-0.042-0.168c-0.021-0.148,0.042-0.295,0.042-0.441C332.737,276.914,332.716,276.451,332.653,276.031z
			 M347.08,284.346c-0.063-0.357,0-0.713-0.021-1.112c0-0.315,0.021-0.651,0-0.966l-0.042-2.184c0-0.609,0-1.281-0.23-1.807
			c-0.231-0.523-0.42-1.027-0.819-1.469c-0.336-0.168-0.63-0.462-1.05-0.609l-0.146-0.041c-0.252-0.064-0.504-0.252-0.756-0.315
			c-0.735-0.147-1.449,0.021-2.1,0.126c-0.336,0.23-0.756,0.314-1.113,0.504c-0.356,0.189-0.588,0.462-0.84,0.734
			c-0.104,0.105-0.23,0.168-0.314,0.315c-0.147,0.147-0.21,0.315-0.273,0.546c-0.021,0.062-0.084,0.125-0.084,0.189
			c-0.062,0.23-0.021,0.42-0.042,0.607c-0.021,0.652-0.042,1.135-0.042,1.744v1.406c0,0.945-0.042,1.89-0.021,2.793
			c0,0.062,0.021,0.125,0.021,0.209c0,0.189-0.021,0.588-0.021,0.777c-0.021,0.021-0.021,0.105-0.021,0.273
			c-0.062,0.482,0.084,0.881,0.084,1.322c0.021,0.398,0.084,0.693,0.168,1.008c0.105,0.314,0.252,0.588,0.399,0.818l0.272,0.379
			c0.231,0.168,0.42,0.398,0.651,0.588l0.378,0.252c0.126,0.062,0.252,0.125,0.398,0.23l0.462,0.209
			c0.189,0.064,0.315,0.043,0.546,0.064c0.168,0,0.315,0.062,0.483,0.084c0.398,0.02,0.756-0.105,1.154-0.189
			c0.357-0.084,0.693-0.211,0.987-0.379c0.146-0.062,0.272-0.146,0.42-0.23l0.188-0.168c0.231-0.168,0.399-0.252,0.567-0.482
			s0.252-0.336,0.398-0.566c0.105-0.232,0.252-0.525,0.189-0.84c0.272-0.988,0.21-2.352,0.21-3.527c0-0.064,0.021-0.084,0.021-0.148
			C347.143,284.43,347.101,284.408,347.08,284.346z M344.497,287.264c0,0.021-0.042,0.084-0.062,0.148l-0.042,0.168
			c0,0.02-0.042,0.02-0.063,0.084c-0.021,0.02,0,0.084-0.021,0.104c-0.021,0.064-0.084,0.043-0.105,0.105
			c-0.356,0.441-1.028,0.609-1.784,0.42l-0.273-0.23c-0.021-0.021,0-0.043-0.021-0.105c-0.315-0.398-0.357-1.029-0.336-1.617
			c0.062-0.607-0.021-1.238-0.042-1.826c-0.063-1.596,0.042-3.023,0.042-4.641c0-0.314-0.042-0.482,0.062-0.734
			c0.063-0.104,0.231-0.336,0.315-0.398c0.272-0.23,0.756-0.294,1.07-0.314c0.168,0,0.294,0.021,0.399,0.084l0.062,0.062
			c0.021,0.021,0.084,0,0.105,0.021c0.062,0.021,0.042,0.041,0.104,0.104l0.147,0.064c0.146,0.146,0.294,0.377,0.356,0.65
			c0.021,0.189,0,0.377,0,0.566c0.021,0.398-0.021,0.84,0,1.155c0.063,0.399,0,0.923,0.021,1.323
			c0.021,0.504-0.021,1.049,0.126,1.448c-0.063,0.231-0.042,0.419-0.021,0.671c0,0.273,0,0.609,0.021,1.029
			c0,0.314,0.021,0.609-0.042,0.945C344.497,286.781,344.561,287.012,344.497,287.264z M361.065,288.252l-0.398-1.156
			c-0.147-0.398-0.273-0.775-0.378-1.176c-0.231-0.439-0.357-0.986-0.504-1.49c0.188-0.084,0.314-0.23,0.462-0.377
			c0.398-0.315,0.714-0.631,0.986-1.051c0.168-0.272,0.273-0.588,0.357-0.945c0.104-0.419,0.168-0.839,0.188-1.279
			c0.021-0.189,0-0.379-0.021-0.567c-0.021-0.399,0.062-0.819-0.021-1.176c-0.021-0.188-0.084-0.378-0.146-0.608
			c-0.105-0.189-0.21-0.357-0.273-0.631c-0.272-0.504-0.65-0.965-1.134-1.281c-0.062-0.062-0.104,0.064-0.126,0
			c-0.23-0.146-0.42-0.188-0.734-0.271c-1.092-0.252-2.436-0.315-3.695-0.315c-0.504,0-1.071,0-1.554,0.063
			c0.021,0.084-0.042,0.125-0.063,0.188c-0.021,0.819,0.021,1.47,0.021,2.372c0,0.693-0.021,1.365-0.042,1.932
			c-0.021,0.441,0,0.756,0,1.155c0,0.504-0.084,0.966-0.063,1.448c0.063,1.092,0,2.078,0,2.939c0,0.482,0,0.945-0.021,1.387
			c0,0.168-0.021,0.355,0,0.523c0.062,0.4,0,0.756-0.021,1.156c-0.021,0.65-0.021,1.111-0.021,1.531
			c0.356,0.148,0.65,0.189,1.05,0.252c0.566,0.064,1.07,0.064,1.49-0.104c0-0.148,0.084-0.211,0.105-0.357v-0.566
			c0.021-0.525,0-1.072-0.021-1.639c0-0.084,0.021-0.168,0.021-0.252c-0.021-1.029,0.021-2.1,0.084-3.086
			c0.252,0.062,0.672,0.062,0.86,0c0.021,0.23,0.105,0.357,0.168,0.504c0.253,0.734,0.483,1.428,0.714,2.162
			c0.147,0.441,0.231,0.861,0.378,1.281c0.231,0.672,0.42,1.238,0.609,1.848c0.252,0.021,0.482,0.105,0.798,0.168
			c0.608,0.146,1.28,0.105,1.722-0.043c0.104-0.271-0.063-0.504-0.168-0.775C361.485,289.406,361.297,288.818,361.065,288.252z
			 M354.2,276.199c-0.104,0-0.021,0,0-0.062C354.263,276.137,354.2,276.179,354.2,276.199z M359.155,280.377
			c0,0.337,0,0.609-0.063,0.945c-0.062,0.252-0.042,0.399-0.188,0.547c-0.525,0.356-1.365,0.356-2.268,0.336
			c-0.084-0.252-0.042-0.609-0.021-0.924c0.021-0.861,0-1.912,0-2.688c0.273,0,0.609,0.021,0.84,0
			c0.399-0.021,0.903-0.021,1.218,0.125c0.21,0.105,0.336,0.231,0.399,0.379C359.218,279.412,359.134,279.938,359.155,280.377z
			 M386.539,276.074c-0.336,0.986-0.693,2.057-1.092,2.98l-0.084,0.273c-0.231,0.482-0.441,1.008-0.693,1.512
			c-0.146-0.42-0.378-0.818-0.524-1.218c-0.147-0.315-0.21-0.608-0.315-0.925c-0.314-0.943-0.609-1.826-0.945-2.688
			c-0.084,0.021-0.168,0.021-0.272,0c-0.903-0.083-1.7-0.062-2.52,0c-0.021,0.064-0.042,0.127-0.084,0.169
			c0.168,0.272,0.273,0.546,0.378,0.86c0.23,0.566,0.546,1.092,0.734,1.68c0.441,1.26,0.903,2.395,1.407,3.486
			c0.147,0.271,0.252,0.566,0.315,0.859l0.524,1.219c-0.063,1.344-0.104,2.729-0.042,4.072l0.062,0.568
			c0,0.314-0.041,0.629-0.041,0.943c-0.021,0.336-0.021,0.652-0.021,0.904c0.168,0.084,0.378,0.084,0.566,0.104l0.609,0.043
			c0.398,0,0.777-0.105,1.134-0.127c0.105,0,0.188,0.043,0.294-0.02c0.062-0.568-0.021-1.24-0.021-1.891
			c0-0.525,0.021-1.049,0.043-1.553c0.062-0.924-0.043-1.996-0.021-2.898c0.105-0.398,0.252-0.65,0.398-0.986
			c0.337-0.84,0.715-1.806,1.113-2.666c0.23-0.484,0.336-0.924,0.566-1.344c0.105-0.232,0.168-0.483,0.252-0.715l0.147-0.252
			c0.188-0.42,0.399-0.881,0.588-1.365c0.063-0.104,0.084-0.188,0.104-0.251l0.063-0.104c0.104-0.232,0.252-0.525,0.084-0.693
			C388.345,275.99,387.378,275.927,386.539,276.074z M403.401,284.346c-0.063-0.357,0-0.713-0.021-1.112
			c0-0.315,0.021-0.651,0-0.966l-0.042-2.184c0-0.609,0-1.281-0.23-1.807c-0.231-0.523-0.42-1.027-0.819-1.469
			c-0.336-0.168-0.63-0.462-1.05-0.609l-0.146-0.041c-0.252-0.064-0.504-0.252-0.756-0.315c-0.735-0.147-1.449,0.021-2.1,0.126
			c-0.336,0.23-0.756,0.314-1.113,0.504c-0.356,0.189-0.588,0.462-0.84,0.734c-0.104,0.105-0.23,0.168-0.314,0.315
			c-0.147,0.147-0.21,0.315-0.273,0.546c-0.021,0.062-0.084,0.125-0.084,0.189c-0.062,0.23-0.021,0.42-0.042,0.607
			c-0.021,0.652-0.042,1.135-0.042,1.744v1.406c0,0.945-0.042,1.89-0.021,2.793c0,0.062,0.021,0.125,0.021,0.209
			c0,0.189-0.021,0.588-0.021,0.777c-0.021,0.021-0.021,0.105-0.021,0.273c-0.062,0.482,0.084,0.881,0.084,1.322
			c0.021,0.398,0.084,0.693,0.168,1.008c0.105,0.314,0.252,0.588,0.399,0.818l0.272,0.379c0.231,0.168,0.42,0.398,0.651,0.588
			l0.378,0.252c0.126,0.062,0.252,0.125,0.398,0.23l0.462,0.209c0.189,0.064,0.315,0.043,0.546,0.064
			c0.168,0,0.315,0.062,0.483,0.084c0.398,0.02,0.756-0.105,1.154-0.189c0.357-0.084,0.693-0.211,0.987-0.379
			c0.146-0.062,0.272-0.146,0.42-0.23l0.188-0.168c0.231-0.168,0.399-0.252,0.567-0.482s0.252-0.336,0.398-0.566
			c0.105-0.232,0.252-0.525,0.189-0.84c0.272-0.988,0.21-2.352,0.21-3.527c0-0.064,0.021-0.084,0.021-0.148
			C403.464,284.43,403.422,284.408,403.401,284.346z M400.818,287.264c0,0.021-0.042,0.084-0.062,0.148l-0.042,0.168
			c0,0.02-0.042,0.02-0.063,0.084c-0.021,0.02,0,0.084-0.021,0.104c-0.021,0.064-0.084,0.043-0.105,0.105
			c-0.356,0.441-1.028,0.609-1.784,0.42l-0.273-0.23c-0.021-0.021,0-0.043-0.021-0.105c-0.315-0.398-0.357-1.029-0.336-1.617
			c0.062-0.607-0.021-1.238-0.042-1.826c-0.063-1.596,0.042-3.023,0.042-4.641c0-0.314-0.042-0.482,0.062-0.734
			c0.063-0.104,0.231-0.336,0.315-0.398c0.272-0.23,0.756-0.294,1.07-0.314c0.168,0,0.294,0.021,0.399,0.084l0.062,0.062
			c0.021,0.021,0.084,0,0.105,0.021c0.062,0.021,0.042,0.041,0.104,0.104l0.147,0.064c0.146,0.146,0.294,0.377,0.356,0.65
			c0.021,0.189,0,0.377,0,0.566c0.021,0.398-0.021,0.84,0,1.155c0.063,0.399,0,0.923,0.021,1.323
			c0.021,0.504-0.021,1.049,0.126,1.448c-0.063,0.231-0.042,0.419-0.021,0.671c0,0.273,0,0.609,0.021,1.029
			c0,0.314,0.021,0.609-0.042,0.945C400.818,286.781,400.882,287.012,400.818,287.264z M417.786,276.199
			c-0.062-0.021-0.042-0.084-0.062-0.146c-0.42-0.146-0.966-0.273-1.449-0.126c-0.146-0.021-0.356,0.021-0.546,0.042
			c-0.21,0.021-0.398,0.062-0.546,0.125l-0.042,1.261c0,0.104,0.021,0.188,0.021,0.294s-0.042,0.21-0.042,0.314
			c0,0.609,0.021,1.092,0.021,1.659v1.428c-0.021,0.776-0.062,1.575-0.062,2.31c0.021,0.084-0.042,0-0.042,0.062
			c0.084,0,0.021,0.105,0.021,0.127c0,0.439,0,1.154,0.021,1.68c0.021,0.588,0.062,1.195,0,1.699c0.062,0.127,0.062,0.295,0,0.504
			c-0.021,0.105,0,0.232-0.063,0.316c-0.084,0.23-0.482,0.439-0.735,0.504c-0.062,0.02-0.125,0-0.188,0.02
			c-0.062,0.021-0.126,0.064-0.188,0.064c-0.231,0.02-0.42-0.043-0.567-0.064c-0.398-0.084-0.651-0.293-0.798-0.65
			c-0.146-0.336-0.084-0.672-0.084-1.07c-0.021-0.566-0.062-1.219-0.042-1.869l0.063-2.582c0-0.902-0.021-1.742-0.021-2.478
			c0.021-0.44,0-0.86,0-1.28c-0.021-0.399,0.021-0.819-0.042-1.176c0.063-0.064-0.042-0.168,0.042-0.231
			c-0.104-0.21,0.105-0.714-0.084-0.903c-0.504-0.021-1.008-0.188-1.512-0.125l-0.966,0.168c0,0.084-0.063,0.084-0.084,0.146
			c0.063,0.482,0.021,1.008,0,1.533c0,1.092,0.063,2.204,0,3.296c-0.062,1.26,0,2.099,0,3.128c0,0.146-0.042,0.336,0.042,0.357
			c-0.146,0.252,0,0.713,0,1.049c-0.021,0.232-0.062,0.463-0.062,0.715c0,0.504,0.021,1.07,0.084,1.553
			c0.021,0.252,0.104,0.484,0.168,0.736c0.168,0.482,0.504,0.775,0.776,1.176c0.231,0.146,0.294,0.293,0.483,0.439
			c0.146,0.105,0.336,0.168,0.504,0.273c0.167,0.084,0.336,0.168,0.504,0.23c0.23,0.064,0.44,0.127,0.756,0.148
			c0.65,0.084,1.301,0.041,1.952-0.105l0.378-0.062l0.273-0.168l0.252-0.105c0.084-0.062,0.146-0.084,0.21-0.146
			c0.084-0.064,0.188-0.064,0.251-0.127c0.147-0.105,0.253-0.23,0.399-0.377c0.231-0.189,0.315-0.336,0.462-0.568l0.126-0.168
			c0.021-0.062,0-0.104,0.021-0.125c0-0.062,0.043-0.062,0.063-0.127c0.084-0.271,0.104-0.629,0.168-0.859
			c0.063-0.148,0.084-0.252,0.105-0.316c0.021-0.23-0.021-0.607-0.042-0.859c-0.021-0.568,0.104-1.197,0.021-1.701
			c0.084-0.734,0.021-1.428,0.021-2.1c0-0.777,0.021-1.512,0.021-2.33c0-0.42,0-0.777-0.021-1.176
			C417.66,278.32,417.85,277.375,417.786,276.199z M409.871,276.179c0-0.021,0.084-0.042,0.084,0.021
			C409.912,276.199,409.892,276.199,409.871,276.179z M432.36,275.969c-0.063-0.021-0.126,0.062-0.189,0.062
			c-0.482,0.021-0.986,0.043-1.554-0.021c-1.532-0.062-3.233,0-4.745-0.02c-0.566,0-1.218-0.105-1.7-0.043
			c-0.252,0.693-0.357,1.723-0.126,2.457c0.188,0.084,0.42,0.084,0.65,0.084c0.231,0,0.483,0.042,0.714,0.042
			c0.567,0,1.092-0.021,1.617,0c0.062,0.399,0,0.567-0.021,0.966c-0.062,0.65,0.021,1.176-0.042,1.826
			c-0.062,0.819,0.021,1.639,0.021,2.457c0,0.84,0.021,1.637,0.021,2.457c0,0.775-0.084,1.447-0.084,2.184
			c0,0.818,0.063,1.512,0,2.268c0.231,0.146,0.483,0.168,0.735,0.188c0.272,0.021,0.588,0.105,0.84,0.043
			c0.021,0,0.042,0.021,0.062,0.021c0.315,0,0.609-0.105,0.924-0.127c0-0.777,0.084-1.428,0.084-2.205c0-0.398-0.021-0.797,0-1.195
			c0-0.4-0.021-0.756,0-1.113c0-0.42,0.021-0.84,0.021-1.26s0.062-0.861,0-1.26c0-0.062-0.042-0.105-0.042-0.168
			c-0.021-0.252,0.042-0.525-0.042-0.777c0.021-0.273,0.062-0.65,0.062-1.049c0-0.252-0.042-0.504-0.042-0.735
			c0-0.315,0.042-0.63,0.042-0.944c-0.021-0.567-0.084-1.051,0.021-1.617c0.104-0.062,0.104,0,0.21,0.021h0.294
			c0.314,0.021,0.588,0,0.86,0c0.399,0,0.798-0.063,1.134,0c0.105,0,0.189,0.084,0.294,0.021c0.147-0.315,0.273-0.608,0.294-1.05
			c0-0.252-0.021-0.546-0.084-0.818C432.591,276.557,432.465,275.969,432.36,275.969z M446.808,276.199
			c-0.062-0.021-0.042-0.084-0.062-0.146c-0.42-0.146-0.966-0.273-1.449-0.126c-0.146-0.021-0.356,0.021-0.546,0.042
			c-0.21,0.021-0.398,0.062-0.546,0.125l-0.042,1.261c0,0.104,0.021,0.188,0.021,0.294s-0.042,0.21-0.042,0.314
			c0,0.609,0.021,1.092,0.021,1.659v1.428c-0.021,0.776-0.062,1.575-0.062,2.31c0.021,0.084-0.042,0-0.042,0.062
			c0.084,0,0.021,0.105,0.021,0.127c0,0.439,0,1.154,0.021,1.68c0.021,0.588,0.062,1.195,0,1.699c0.062,0.127,0.062,0.295,0,0.504
			c-0.021,0.105,0,0.232-0.063,0.316c-0.084,0.23-0.482,0.439-0.734,0.504c-0.063,0.02-0.126,0-0.189,0.02
			c-0.062,0.021-0.126,0.064-0.188,0.064c-0.231,0.02-0.42-0.043-0.567-0.064c-0.398-0.084-0.65-0.293-0.798-0.65
			c-0.146-0.336-0.084-0.672-0.084-1.07c-0.021-0.566-0.062-1.219-0.042-1.869l0.063-2.582c0-0.902-0.021-1.742-0.021-2.478
			c0.021-0.44,0-0.86,0-1.28c-0.021-0.399,0.021-0.819-0.042-1.176c0.063-0.064-0.042-0.168,0.042-0.231
			c-0.104-0.21,0.105-0.714-0.084-0.903c-0.504-0.021-1.008-0.188-1.512-0.125l-0.966,0.168c0,0.084-0.062,0.084-0.084,0.146
			c0.063,0.482,0.021,1.008,0,1.533c0,1.092,0.063,2.204,0,3.296c-0.062,1.26,0,2.099,0,3.128c0,0.146-0.042,0.336,0.042,0.357
			c-0.146,0.252,0,0.713,0,1.049c-0.021,0.232-0.062,0.463-0.062,0.715c0,0.504,0.021,1.07,0.084,1.553
			c0.021,0.252,0.104,0.484,0.168,0.736c0.168,0.482,0.504,0.775,0.776,1.176c0.231,0.146,0.294,0.293,0.483,0.439
			c0.146,0.105,0.336,0.168,0.504,0.273c0.168,0.084,0.336,0.168,0.504,0.23c0.23,0.064,0.44,0.127,0.756,0.148
			c0.65,0.084,1.302,0.041,1.952-0.105l0.378-0.062l0.273-0.168l0.252-0.105c0.084-0.062,0.146-0.084,0.21-0.146
			c0.084-0.064,0.188-0.064,0.252-0.127c0.146-0.105,0.252-0.23,0.398-0.377c0.231-0.189,0.315-0.336,0.462-0.568l0.126-0.168
			c0.021-0.062,0-0.104,0.021-0.125c0-0.062,0.042-0.062,0.062-0.127c0.084-0.271,0.105-0.629,0.168-0.859
			c0.063-0.148,0.084-0.252,0.105-0.316c0.021-0.23-0.021-0.607-0.042-0.859c-0.021-0.568,0.104-1.197,0.021-1.701
			c0.084-0.734,0.021-1.428,0.021-2.1c0-0.777,0.021-1.512,0.021-2.33c0-0.42,0-0.777-0.021-1.176
			C446.682,278.32,446.871,277.375,446.808,276.199z M438.893,276.179c0-0.021,0.084-0.042,0.084,0.021
			C438.935,276.199,438.913,276.199,438.893,276.179z M461.76,285.438l-0.042-0.398c-0.063-0.23-0.168-0.379-0.252-0.566
			c-0.063-0.148-0.105-0.273-0.168-0.379c-0.104-0.188-0.294-0.314-0.462-0.461l-0.504-0.441c0.398-0.378,0.693-0.861,0.882-1.47
			c0.23-0.651,0.336-1.261,0.23-1.995c-0.062-0.441-0.084-0.861-0.188-1.26l-0.189-0.44c-0.146-0.337-0.252-0.504-0.44-0.776
			c-0.063-0.105-0.147-0.232-0.252-0.336c-0.168-0.147-0.378-0.252-0.609-0.4c-0.65-0.355-1.448-0.545-2.435-0.523
			c-0.399,0-0.757,0.062-1.155,0.041c-0.86,0-1.974-0.041-2.583,0.021c0.105,0.902,0.021,1.806,0.021,2.729
			c0,0.924,0.021,1.869,0.021,2.793c0,1.428,0,2.73-0.063,3.99c-0.021,0.482,0.021,0.881,0.021,1.322
			c0,0.273,0.021,0.525,0.021,0.777c-0.062,1.07,0.042,1.994-0.021,2.98c0.105,0.021,0.168,0.084,0.252,0.105
			c0.189,0.062,0.463,0,0.715,0c0.44,0.021,0.902,0.041,1.344,0.021c0.23,0,0.42-0.021,0.608-0.021c0.44-0.062,1.134,0,1.658,0
			c0.294,0,0.567-0.021,0.819-0.062c0.23-0.064,0.462-0.043,0.63-0.189c0.23-0.062,0.44-0.084,0.524-0.273
			c0.231-0.189,0.547-0.377,0.735-0.629c0.231-0.273,0.356-0.652,0.504-0.988c0.188-0.398,0.356-0.902,0.356-1.301
			c0.063-0.105,0.043-0.23,0.063-0.336l0.062-0.357c0-0.252-0.062-0.482-0.062-0.734L461.76,285.438z M456.217,280
			c0.021-0.084,0.021-0.168,0-0.23c0.062-0.42-0.021-0.777,0-1.219c0.86-0.062,2.016-0.252,2.456,0.314
			c0.021,0.253,0.126,0.484,0.147,0.736c0.021,0.168,0.021,0.336,0.021,0.566c0,0.146-0.021,0.23-0.021,0.378
			c0,0.399,0.021,0.798-0.042,1.112c-0.252,0.168-0.504,0.42-0.903,0.504c-0.504,0.084-1.133,0-1.658,0
			C456.279,281.344,456.279,280.818,456.217,280z M459.114,287.559c-0.021,0.084-0.168,0.293-0.231,0.377
			c-0.168,0.232-0.398,0.295-0.756,0.357c-0.587,0.105-1.176,0.062-1.848,0c0.021-1.176-0.062-2.141,0-3.59
			c0.567-0.084,0.798-0.021,1.386-0.021c0.105,0,0.21-0.021,0.315-0.021c0.252-0.02,0.756,0.127,0.902,0.273
			c0.147,0.146,0.294,0.525,0.294,0.84v0.336c0,0.314-0.021,0.672-0.021,0.945C459.177,287.223,459.219,287.391,459.114,287.559z
			 M476.522,288.188c-0.063-0.041-0.126-0.02-0.21,0.043c-0.146-0.062-0.357,0.021-0.504-0.043
			c-0.084,0.043-0.168,0.064-0.272,0.064c-1.344,0.062-2.897-0.064-4.263-0.064c-0.105-1.092-0.021-2.52,0.042-3.527
			c0.735,0,1.386-0.062,2.037,0c0.021,0.021,0.021,0,0.021-0.02c0.525-0.021,1.029,0,1.554,0.02c0.147,0,0.294,0,0.44-0.02
			c0.169-0.84,0.105-1.764-0.041-2.436c-0.147-0.063-0.357-0.021-0.504-0.021c-0.063,0-0.126-0.021-0.189-0.021
			c-0.252,0-0.462-0.041-0.692,0.021c-0.757-0.084-1.806,0-2.625,0c-0.252-0.734-0.126-1.617-0.104-2.479l0.021-0.02
			c0.021-0.252,0.042-0.484,0.042-0.735v-0.042c-0.021-0.021-0.021-0.084-0.021-0.23c0.86,0,1.68,0.02,2.498,0
			c0.336,0,0.672,0.041,1.028,0.041c0.399,0,0.693-0.021,1.092,0c0.189,0,0.379,0.062,0.609,0c0.062-0.188,0.105-0.461,0.105-0.629
			c0.104-0.484,0.062-0.861,0.062-1.387c-0.062-0.105-0.062-0.272-0.084-0.377c-0.021-0.147-0.042-0.232-0.042-0.273
			c-0.168-0.062-0.314-0.021-0.482-0.021c-0.589,0-1.177-0.062-1.765-0.041c-1.868,0.084-3.716-0.084-5.563,0.062
			c0,0.062-0.042,0.105-0.104,0.146c0,0.924,0,2.016-0.021,3.045h-0.021v0.062c0.021,0.021,0.021,0.021,0.021,0.043
			c0.063,0.924,0,1.952,0.021,2.771c-0.063,0.168-0.042,0.439-0.021,0.629c0,0.23,0,0.42,0.021,0.651
			c0,0.231,0.042,0.483,0.042,0.735c0,0.104-0.063,0.188,0,0.293c-0.063,0.062-0.021,0.105-0.042,0.189
			c-0.021,0.84-0.063,1.596,0,2.414c0.021,0.398-0.021,0.818,0,1.219c0.062,0.818,0,1.637,0.062,2.477
			c0.063,0.062,0.105,0.043,0.168,0.105c0.903,0,1.68,0.041,2.604-0.021c0.818-0.021,1.512-0.146,2.246-0.125l2.604,0.041
			c0.042,0.084,0.104,0.105,0.188,0.043c0.021-0.232,0.147-0.547,0.084-0.777C476.732,289.428,476.628,288.672,476.522,288.188z"/>
	</g>
</g>
<g>
	<g>
		<path fill="#FFFFFF" d="M49.403,205.441l-1.204-3.269c-0.86-2.924-2.236-6.364-2.752-9.632c1.204-0.86,2.236-1.721,3.268-2.752
			c1.204-1.204,1.892-1.72,3.096-2.58c5.504-4.816,8.6-11.352,9.46-19.779c0.516-4.988,0.344-9.633,0.344-14.448
			c0-1.204,0.344-2.924-0.172-4.3c0-1.204-1.204-1.892-0.688-3.096c-1.892-2.58-2.408-5.332-3.784-7.912s-3.268-4.3-5.16-6.364
			c-1.892-0.688-2.924-1.548-4.816-2.408c-3.44-1.548-7.568-1.893-11.524-2.58c-1.892-0.172-3.956-0.688-6.02-0.86
			c-2.58-0.172-5.504-0.172-8.084-0.172c-2.58-0.172-5.16,0-7.912,0s-5.504,0.172-8.084,0.172c-1.892-0.172-3.268-0.516-4.128,0
			l-0.172,0.172H0.9c-0.516,0.86,0.172,2.408-0.516,2.58c0.86,0.86,0.344,2.752,0.344,4.128c0,1.548,0.172,3.096,0.172,4.644
			c0,7.396,0,13.932,0.172,20.295c-0.688,6.364,0,11.523-0.516,17.2c-0.516,6.02,0,12.384,0.172,19.092
			c-0.516,0.688,0,2.579-0.516,3.268c0.86,7.739-0.344,17.888,0.344,26.144c0.516,6.02-1.032,12.212-0.516,19.607
			c5.504,1.893,12.04,2.408,18.06,1.204c0.516-14.447-0.344-35.259,1.032-48.503c1.204-0.688,2.58,0,3.956,0
			c2.064,0.172,3.956-0.172,5.848,0c0.172,3.268,1.892,4.988,2.408,7.912c2.752,6.363,4.644,13.416,6.708,20.295
			c0.516,1.893,0.86,3.612,1.376,4.988c1.548,4.816,3.096,9.46,4.988,14.104c5.676,1.549,11.524,2.58,18.231,1.376
			c-2.58-6.364-4.128-13.071-6.708-19.436C53.359,218.168,51.983,211.633,49.403,205.441z M43.211,161.582
			c0,1.375,0,2.924-0.172,4.471c0,0.688-0.344,1.377-0.516,2.064c0,1.204,0,1.721-0.172,1.893c-0.172,0.688-1.376,2.752-1.892,3.268
			c-1.204,1.204-4.472,2.236-6.364,2.752s-4.472,0.344-6.02,0.344c-3.268,0-6.192,0.172-8.256,0
			c-1.376-2.58-0.688-7.396-0.688-11.352c0-6.708,0.172-13.76,0.172-20.64c0.516-0.516,1.204-0.172,1.72-0.688
			c4.988,0.172,8.6-0.688,13.588,0.172c3.44,0.688,6.536,2.064,7.74,4.816C43.899,151.949,43.211,157.625,43.211,161.582z
			 M1.072,125.462h0.172c0-0.172,0-0.344-0.172-0.344c-0.172,0.516-0.86,0.516-0.172,0.516
			C1.072,125.634,1.072,125.634,1.072,125.462z M134.093,148.854c-0.172-0.859-0.688-1.72-0.86-2.58
			c-0.86-2.752-1.376-5.16-2.58-7.224c-0.516-1.032-1.204-2.064-2.064-3.096c-1.548-1.892-3.096-3.44-4.988-5.332
			c-0.516-0.516-1.376-0.86-1.892-1.376c-1.204-0.86-1.892-1.204-3.268-1.892c-1.548-0.688-3.096-1.548-4.988-2.064
			c-0.516,0-0.688,0.172-1.204,0c0-0.516-0.516,0-0.344-0.688c-3.956-0.516-8.256-0.516-12.899,0
			c-3.268,0.516-5.848,1.204-8.428,2.408c-4.128,1.548-7.568,3.44-10.32,6.708c-1.204,1.204-2.064,2.064-2.752,2.924
			c-1.204,1.548-1.72,3.612-2.924,5.504c-0.86,5.332-2.58,8.255-2.064,14.448c0.172,3.268,0.344,6.707,1.204,9.976
			c1.204,2.752,2.752,5.332,4.816,7.567c1.376,1.721,2.924,3.269,4.644,4.645l1.376,1.204c4.816,4.128,9.632,8.944,14.448,13.071
			c0.688,0.688,1.548,1.204,2.236,1.721c0.86,1.203,1.892,1.547,2.58,2.752c2.064,0.859,3.44,2.58,5.504,3.783
			c1.204,1.893,2.58,2.752,3.784,4.645c0.172,0.172,0.344,0.344,0.516,0.344c0,1.204,0.688,2.064,1.204,3.268
			c0.516,1.893,0.86,4.473,1.032,6.536c0.172,1.204,0.344,2.924-0.172,4.128c-0.516,0.859-1.204,1.548-2.064,2.236
			c-1.204,1.376-2.752,2.408-4.128,3.783c-2.924,1.893-6.192,2.236-9.804,1.032c-1.548-0.516-3.956-1.204-5.16-2.063v-0.344
			c-0.86-0.173-1.376-1.205-1.892-2.408c-2.236-4.645-1.376-10.836-1.376-16.855c-5.504-0.172-11.868-1.549-18.231,0
			c-1.204,6.707-0.344,14.963,1.548,21.671c1.204,3.956,3.096,6.88,4.988,9.46c1.204,0.859,1.892,1.893,3.096,2.752
			c0,0.172,0,0.172,0.172,0.172c0,0.172,0.172,0.344,0.172,0.516c0.172-0.172,0.688,0.172,1.72,0.688
			c1.376,0.517,2.924,1.892,4.128,2.408l4.816,1.376c2.236,0.516,4.988,0.172,7.74,0c1.376-0.172,2.408,0,3.612,0l3.956-0.516
			c1.892-0.517,3.956,0,5.504-0.517c1.376-0.517,2.752-0.86,3.956-1.376l1.892-1.376c1.204-0.688,2.236-0.86,3.096-1.376
			c1.548-1.204,2.408-2.752,3.612-4.3c1.376-1.548,2.924-3.269,4.128-5.16c0.688-1.548,1.032-3.096,1.548-4.987l1.376-5.676
			c0.344-2.925,0.344-6.021,0-9.289c0-0.516-0.516,0-0.688-0.516c-0.516-3.439-1.548-6.707-2.752-9.287
			c-0.86-1.893-1.892-2.924-2.752-4.816c-1.892-1.892-3.268-3.956-5.16-5.848l-0.516-0.516c-0.688-0.688-1.548-1.205-2.236-1.721
			c-0.688-0.688-1.204-1.376-1.72-2.064c-1.892-1.892-3.956-3.268-5.848-5.159c-2.58-1.376-4.128-3.44-6.708-4.644
			c-0.688-1.205-1.892-1.721-2.752-2.58c-0.86-0.688-1.72-1.893-2.924-2.408c-1.548-2.752-4.128-4.645-5.504-7.568
			c-0.516-0.516-0.516-1.031-1.032-1.548l-1.376-3.612c-1.204-3.611-0.86-8.428,1.376-11.18l1.548-1.375
			c0.688-0.688,1.548-1.204,2.58-1.72c2.064-1.204,5.848-1.032,8.428-0.516c0.86,0,1.72,0.688,2.58,0.688
			c0.516,0,1.376,0.172,2.236,0.344c0.688,1.204,1.892,1.72,2.752,2.924c3.268,4.644,2.236,11.523,2.236,16.855
			c5.332,2.063,12.556,1.032,18.232,0.86c0.516-1.893,0.344-3.956,0.344-6.192C134.437,155.218,134.781,152.121,134.093,148.854z
			 M206.521,148.854c-0.172-0.859-0.688-1.72-0.86-2.58c-0.86-2.752-1.376-5.16-2.58-7.224c-0.516-1.032-1.204-2.064-2.064-3.096
			c-1.548-1.892-3.096-3.44-4.988-5.332c-0.516-0.516-1.376-0.86-1.892-1.376c-1.204-0.86-1.892-1.204-3.268-1.892
			c-1.548-0.688-3.096-1.548-4.988-2.064c-0.516,0-0.688,0.172-1.204,0c0-0.516-0.516,0-0.344-0.688
			c-3.956-0.516-8.256-0.516-12.9,0c-3.268,0.516-5.848,1.204-8.428,2.408c-4.128,1.548-7.568,3.44-10.32,6.708
			c-1.204,1.204-2.064,2.064-2.752,2.924c-1.204,1.548-1.72,3.612-2.924,5.504c-0.86,5.332-2.58,8.255-2.064,14.448
			c0.172,3.268,0.344,6.707,1.204,9.976c1.204,2.752,2.751,5.332,4.816,7.567c1.376,1.721,2.924,3.269,4.644,4.645l1.376,1.204
			c4.816,4.128,9.632,8.944,14.448,13.071c0.688,0.688,1.548,1.204,2.236,1.721c0.86,1.203,1.892,1.547,2.58,2.752
			c2.064,0.859,3.44,2.58,5.504,3.783c1.204,1.893,2.58,2.752,3.784,4.645c0.172,0.172,0.344,0.344,0.516,0.344
			c0,1.204,0.688,2.064,1.204,3.268c0.516,1.893,0.86,4.473,1.032,6.536c0.172,1.204,0.344,2.924-0.172,4.128
			c-0.516,0.859-1.204,1.548-2.064,2.236c-1.204,1.376-2.752,2.408-4.128,3.783c-2.924,1.893-6.191,2.236-9.804,1.032
			c-1.548-0.516-3.956-1.204-5.16-2.063v-0.344c-0.86-0.173-1.376-1.205-1.892-2.408c-2.236-4.645-1.376-10.836-1.376-16.855
			c-5.504-0.172-11.868-1.549-18.231,0c-1.204,6.707-0.344,14.963,1.548,21.671c1.204,3.956,3.096,6.88,4.988,9.46
			c1.204,0.859,1.892,1.893,3.096,2.752c0,0.172,0,0.172,0.172,0.172c0,0.172,0.172,0.344,0.172,0.516
			c0.172-0.172,0.688,0.172,1.72,0.688c1.375,0.517,2.924,1.892,4.127,2.408l4.816,1.376c2.236,0.516,4.988,0.172,7.74,0
			c1.376-0.172,2.408,0,3.612,0l3.956-0.516c1.892-0.517,3.956,0,5.504-0.517c1.376-0.517,2.752-0.86,3.956-1.376l1.892-1.376
			c1.204-0.688,2.236-0.86,3.096-1.376c1.548-1.204,2.408-2.752,3.612-4.3c1.376-1.548,2.924-3.269,4.128-5.16
			c0.688-1.548,1.032-3.096,1.548-4.987l1.376-5.676c0.344-2.925,0.344-6.021,0-9.289c0-0.516-0.516,0-0.688-0.516
			c-0.516-3.439-1.548-6.707-2.752-9.287c-0.86-1.893-1.892-2.924-2.752-4.816c-1.892-1.892-3.268-3.956-5.16-5.848l-0.516-0.516
			c-0.688-0.688-1.548-1.205-2.236-1.721c-0.688-0.688-1.204-1.376-1.72-2.064c-1.892-1.892-3.956-3.268-5.848-5.159
			c-2.58-1.376-4.128-3.44-6.708-4.644c-0.688-1.205-1.892-1.721-2.752-2.58c-0.86-0.688-1.72-1.893-2.924-2.408
			c-1.548-2.752-4.128-4.645-5.504-7.568c-0.516-0.516-0.516-1.031-1.032-1.548l-1.376-3.612c-1.204-3.611-0.86-8.428,1.376-11.18
			l1.548-1.375c0.688-0.688,1.548-1.204,2.58-1.72c2.064-1.204,5.848-1.032,8.428-0.516c0.86,0,1.72,0.688,2.58,0.688
			c0.516,0,1.376,0.172,2.236,0.344c0.688,1.204,1.892,1.72,2.752,2.924c3.268,4.644,2.236,11.523,2.236,16.855
			c5.332,2.063,12.556,1.032,18.231,0.86c0.516-1.893,0.344-3.956,0.344-6.192C206.865,155.218,207.208,152.121,206.521,148.854z
			 M255.522,125.462c-11.696-0.516-23.048,0-34.228-0.688c-1.548-0.172-2.924,0-4.472,0.172c-0.86,2.924-1.376,6.02-1.548,9.632
			c-0.172,3.268,0.172,6.192,1.204,8.428c5.332,0.172,11.696,0.172,18.06,0.172c1.376,0,4.816,0,5.504,0.688
			c0.86,0.86,0.86,4.988,0.688,6.536c-0.516,6.021-0.344,13.416-0.86,19.78c0.516,9.115,0.172,18.748,0.688,27.691
			c0,4.815-0.344,9.287-0.344,13.932c0.172,3.956-0.516,8.771-0.516,13.588c0,5.332,0.516,11.18,0,15.479
			c0.516,0.172-0.172,2.063,0,2.924c2.58,1.204,5.676,0.688,8.6,1.204c3.268,0.516,6.364-0.172,9.116-0.688
			c0.172-3.269,0.688-6.364,0.86-9.805c0.516-8.084-0.172-16.34,0.344-24.424c0.172-3.955,0-7.396,0-11.008
			c0-3.268,0.344-6.535,0.172-9.287c0-1.376-0.344-3.096-0.516-4.3c-0.172-2.924-0.172-5.677,0-8.256c0-2.236,0.344-4.3,0.344-6.536
			s-0.344-4.3-0.344-6.88c0-8.084-0.172-13.76,0.516-20.64c7.052,0.516,15.479-0.344,23.048,0.344
			c2.235-4.472,1.892-13.071,0.516-18.06C273.238,124.946,263.778,125.978,255.522,125.462z M292.707,125.462
			c0.172,0.172,0.344,0.172,0.688,0.172C293.396,125.118,292.707,125.29,292.707,125.462z M337.599,125.978
			c-0.517,2.58,0.172,4.816,0,6.88c0,2.064-0.344,4.472-0.344,6.364c-0.173,5.504,0.172,10.319,0.172,15.651
			c0,2.236-0.172,4.301,0,6.536v7.052c-0.688,9.805-0.517,19.092-0.688,29.412c0,0.516,0.517,0.172,0.344,0.688
			c-0.172,3.268,0,6.192,0,9.46c0,1.548,0.173,3.44,0,4.988c-0.172,0.172-0.172,0.516-0.172,0.86c0,0.172,0,0.172-0.172,0.172
			c-0.172,1.375,0,2.58-0.172,3.955c-0.172,0.86,0,1.893-0.516,2.752c-0.517,1.893-2.408,3.097-3.956,3.956
			c-3.956,1.892-9.116,2.064-13.416,0.517c-2.924-1.893-4.815-3.612-6.02-6.88c-0.517-1.893-0.345-3.44-0.172-5.505v-6.191
			c0-2.924-0.86-5.676-0.173-8.256c-0.516-0.859-0.172-1.892-0.172-2.752c0.172-4.644-0.344-8.428,0.172-13.244v-1.547
			c0.173-4.988,0.517-9.977,0-14.793c-0.172-2.579-0.172-4.644-0.172-7.223c0-8.256,0.172-16.34,0-23.736
			c-0.172-0.516,0.345-0.172,0.345-0.344c-0.86-0.516-0.345-1.548-0.345-2.752c0.172-0.688,0-1.548,0.517-1.72
			c-0.172,0-0.345-0.172-0.345-0.516c-0.172-1.204,0.173-2.236,0.173-4.128c-0.86,0-1.204,0-1.376-0.172h-2.236
			c-0.516,0-0.688-0.172-1.204-0.172c-5.332-0.516-9.804-0.344-13.588,0.688c0.517-0.516-0.344-0.344-0.516-0.172
			c-0.172,0.516,0.344,0.344,0.516,0.516c0,1.548-0.172,2.924-0.172,4.472c-0.516,0.516-0.688-0.86-1.204-0.344l1.204,1.204v24.251
			c0,4.3-0.172,7.74-0.344,11.008c0,7.396,0,16.34,0.172,24.424c0,2.236-0.344,4.472-0.344,6.708s0.344,4.3,0.344,6.535
			c0,1.205-0.172,2.58-0.172,3.785c0,1.375,0.172,2.752,0.172,4.127c0.172,3.956,0.516,8.084,1.032,11.353
			c0.516,1.892,0.688,3.268,1.548,4.644c0.516,0.688,0.344,1.548,0.86,2.064c1.203,1.892,2.579,2.924,3.783,4.3
			c1.204,1.548,2.408,2.924,3.956,4.128l3.784,2.063c1.376,0.688,2.58,1.548,3.956,2.063c1.892,0.688,3.784,0.688,5.848,0.86
			l1.892,0.517c2.752,0.516,5.16,0,8.084-0.172c1.204-0.172,2.408,0.172,3.612-0.345c2.58-0.516,5.676-1.204,7.739-2.407
			c1.549-0.688,2.408-1.377,3.612-2.064c0.688-0.516,1.548-0.688,2.236-1.376c0.688-0.517,1.376-1.376,1.892-1.892
			c0.172,0,0.344,0,0.516-0.172c2.064-1.893,3.44-3.784,4.816-5.848c1.204-4.645,2.408-9.289,2.924-13.933
			c0.172-1.892-0.344-2.924-0.516-4.3v-3.439c0-1.377,0.516-2.752,0.516-4.301c0-0.859-0.344-1.72-0.344-2.924
			c-0.172-2.752,0.172-5.504,0.344-8.256c0.172-3.268-0.344-6.191-0.172-9.459v-22.36c0-4.644-0.172-9.46-0.172-14.275
			c0-4.128,0.516-8.256,0.688-12.384c0-2.924-0.516-6.364,0-8.944C350.154,123.742,342.931,124.774,337.599,125.978z
			 M432.73,198.045c-0.688-2.58-2.235-4.472-3.096-6.708c-1.548-1.892-3.784-3.784-5.676-5.332
			c-0.688-0.516-1.548-1.032-2.063-1.548c-0.517-0.516-1.204-1.204-1.204-1.72c0.172-0.517,0.859-0.517,1.376-1.032
			c2.579-1.893,3.611-4.988,5.504-7.224c1.204-4.988,3.956-10.319,3.439-16.34c-0.172-2.236-0.172-4.644-0.688-6.88
			c-0.517-2.58-0.688-4.816-1.376-6.708l-2.752-6.88l-1.893-2.236c-0.516-0.688-0.859-1.72-1.376-2.236
			c-2.063-2.58-4.644-3.44-7.396-4.644c-0.516-0.516-1.032-0.688-1.548-0.86c-2.064-0.86-4.816-1.032-7.396-1.548l-1.892-0.516
			c-1.376,0-4.3-0.172-6.191,0c-9.633,0.86-19.952-0.344-29.068,0.172c0.517,0.86,0.173,1.72,0.345,2.236c0.172,1.892,0,2.752,0,4.3
			c0,4.644-0.172,8.6-0.345,13.244c0,7.568,0.173,15.479,0.345,22.188c0,8.428-0.345,19.779-0.172,29.411
			c0,2.925-0.517,5.849-0.517,9.116c0,4.128,0.517,8.256,0.517,12.556c0,3.269-0.173,6.192-0.173,9.46
			c0,4.988,0.173,10.147,0,15.136c3.956-0.172,8.428,0.344,12.384,0.172c6.364-0.172,13.244,0.172,19.264-0.344
			c2.064-0.173,4.128,0,6.364,0c3.268-0.173,6.364-0.345,8.944-1.548c0.859-0.516,2.063-0.344,2.751-0.86
			c0.517-0.172,1.204-0.86,1.721-1.376c0.688-0.516,1.376-0.859,1.892-1.376c1.204-1.204,2.58-1.892,3.44-3.096
			c1.204-1.548,2.407-3.956,3.268-6.192c1.204-2.236,2.064-4.472,2.58-7.052c1.376-4.987,2.58-10.319,1.892-15.823
			C433.419,203.205,433.419,200.625,432.73,198.045z M387.84,143.694c1.548-0.86,5.676-0.516,7.912-1.032
			c4.3-0.516,10.147,0.344,13.071,2.236c0.688,0.516,1.548,1.72,2.064,2.236c0.172,0.517,0,1.204,0.172,1.892
			c0.172,1.204,0.859,2.236,1.031,2.924c0.688,2.58,0.173,5.848,0.173,9.116c0,2.752,0.516,4.987,0,7.567
			c-0.173,0.86-0.86,2.58-1.376,3.097c-0.517,0.86-1.893,1.376-2.753,2.063c-1.203,0.688-1.892,1.204-3.096,1.721
			c-1.376,0.688-3.268,0.688-5.159,0.688c-3.612,0.172-7.568-0.172-11.009-0.344c-0.516,0-0.172-0.688-0.344-0.86
			c-0.344,0-0.688-0.172-0.859-0.344C388.527,163.646,387.668,154.701,387.84,143.694z M415.188,218.513
			c-1.549,1.892-2.408,3.268-4.3,5.159c-0.517,0.517-0.86,1.205-1.376,1.377c-3.44,0.859-6.536,1.72-10.148,1.72
			c-1.548,0-2.924-0.517-4.472-0.517c-1.892,0-3.784,0.172-5.676-0.344l-0.688-0.859c0.172-4.645-0.344-7.912-0.344-13.244
			s0-10.148,0.172-17.544c3.44-1.204,6.88-0.688,11.008-0.688c1.893,0,3.612-0.173,5.16,0c4.988,0.172,8.084,2.063,9.46,5.676
			c1.204,2.924,1.204,5.848,1.204,9.288C415.016,211.805,415.359,215.244,415.188,218.513z M465.719,225.221
			c-1.376-1.376-1.376-3.956-1.376-6.021c-0.516-8.771,0.172-16.167,0.688-24.595c0.859-0.172,1.376-0.517,1.548-0.86
			c2.752,0,5.16-0.172,7.739-0.172c0.86,0,1.549,0.172,2.408,0.172c0.172,0,0.344-0.345,0.517-0.345
			c0.172,0,0.516,0.173,0.688,0.173c2.064,0,3.096,0,4.472,0.172c3.269,0,6.364-0.517,9.804-0.345c2.236,0,4.128,0.345,6.364,0.173
			c0.688-6.192,0.344-11.524-0.344-17.544c-5.332-0.688-9.804,0.344-15.308-0.344c-6.021,0.516-11.524,0.344-17.888,0.172
			c-2.58-10.32-0.517-19.952-0.517-30.271c0.345-0.344,0.517-0.516,0.688-0.344c0.516,0.516,0-0.86,0.516-0.86
			c6.708,0.516,13.76-0.172,21.156,0c3.611,0,7.224,0.344,10.491,0.172c3.956-0.172,6.88,0.344,10.148,0.344
			c1.376-6.88,1.72-12.899,0.344-19.264c-8.084-0.172-15.652,0-23.735,0c-4.816,0.172-10.148-0.172-14.964,0
			c-3.269,0-7.396-0.172-10.148-0.344c-4.3,0.516-8.771,0.344-13.071,0.516c0.172,8.083,0.172,16.512,0,25.456
			c0,4.3,0.172,8.771,0.172,13.416c-0.172,4.987-0.344,9.459-0.344,14.104c0,3.956,0.172,8.084,0.344,12.384
			c0,4.644-0.344,9.288-0.344,13.932c0,13.76,0.688,27.348,0.516,39.044c8.256-0.517,16.34,0.172,24.424-0.517
			c4.128-0.517,8.256-0.86,12.384-0.86c8.256,0,16.34,0.344,24.424,0.517c0.859-6.021,1.72-11.696,0.516-17.716
			C492.379,226.424,481.371,225.221,465.719,225.221z"/>
	</g>
</g>
<path fill-rule="evenodd" clip-rule="evenodd" fill="#C2DCD8" d="M219.625,6.813L208,59.125v29.062C208,91.4,210.6,94,213.812,94
	h81.375C298.4,94,301,91.4,301,88.188V59.125L289.375,6.813c0-3.213-2.6-5.812-5.812-5.812h-58.125
	C222.225,1,219.625,3.6,219.625,6.813z M271.938,67.844c0,1.607-1.3,2.906-2.906,2.906h-29.062c-1.606,0-2.906-1.299-2.906-2.906
	v-8.719c0-3.212-2.6-5.812-5.812-5.812h-5.812l5.812-40.688h46.5l5.812,40.688h-5.812c-3.213,0-5.812,2.601-5.812,5.812V67.844z"/>
<path fill-rule="evenodd" clip-rule="evenodd" fill="#C2DCD8" d="M245.939,48.701c0.6,0.359,1.34,0.4,1.961,0.08l16-7.998
	c0.68-0.32,1.1-1.021,1.1-1.781s-0.42-1.461-1.1-1.781l-16-7.998c-0.281-0.141-0.6-0.221-0.9-0.221c-0.359,0-0.74,0.1-1.061,0.301
	c-0.58,0.359-0.939,1-0.939,1.699v16C245,47.701,245.359,48.342,245.939,48.701z"/>
</svg>
